<?xml version="1.0" encoding="utf-8"?>
<!-- Generator: Adobe Illustrator 23.0.1, SVG Export Plug-In . SVG Version: 6.00 Build 0)  -->
<svg version="1.1" id="fe93ff64-a18b-49f4-bb52-e425cf20d0d6"
	 xmlns="http://www.w3.org/2000/svg" xmlns:xlink="http://www.w3.org/1999/xlink" x="0px" y="0px" viewBox="0 0 1050 594"
	 style="enable-background:new 0 0 1050 594;" xml:space="preserve">
<style type="text/css">
	.st0{opacity:0.1;fill:#AC0000;enable-background:new    ;}
	.st1{fill:#D0D2D5;}
	.st2{opacity:0.1;enable-background:new    ;}
	.st3{fill:#3F3D56;}
	.st4{fill:#FFFFFF;}
	.st5{fill:#6B1A00;}
	.st6{opacity:0.1;fill:#4E73DF;enable-background:new    ;}
	.st7{fill:#E6E8EC;}
</style>
<title>undraw_posting_photo</title>
<ellipse class="st0" cx="525" cy="561" rx="525" ry="33"/>
<polygon class="st1" points="497.1,550 318.9,547.7 319.4,543.1 328,467.7 484.5,467.7 496,543.1 496.9,548.8 "/>
<polygon class="st2" points="496.9,548.8 408,548.8 318.9,547.7 319.4,543.1 496,543.1 "/>
<rect x="289.2" y="544.3" class="st1" width="236.5" height="5.7"/>
<path class="st3" d="M751.2,14.9c0-8.2-6.6-14.9-14.8-14.9c0,0,0,0,0,0H76.1c-8.2,0-14.8,6.7-14.8,14.9c0,0,0,0,0,0.1l0,0v400.2
	h689.9V14.9z"/>
<path class="st1" d="M61.3,411.2v46.9c0,8.2,6.6,14.8,14.8,14.8h660.3c8.2,0,14.8-6.6,14.8-14.8v-46.9H61.3z"/>
<rect x="89.9" y="25.1" class="st4" width="636.2" height="359.8"/>
<path class="st5" d="M409.7,455.1c4.7,0,9.2-2.2,12.1-5.9l0,0c0.4-0.6,0.8-1.1,1.2-1.8l-8.5-1.5l9.1,0.1c1.8-3.9,1.9-8.3,0.3-12.2
	l-12.3,6.4l11.3-8.3c-4.3-7.4-13.7-9.9-21.1-5.6c-7.4,4.3-9.9,13.7-5.6,21.1l0,0c0.4,0.6,0.8,1.2,1.2,1.8l0,0
	C400.5,452.9,405,455.1,409.7,455.1z"/>
<polygon class="st2" points="425.1,472.9 496.2,544.3 485.3,472.9 "/>
<path class="st6" d="M600.7,324l-45.4-78.6c-0.4-0.7-1.3-0.9-2-0.5c0,0,0,0,0,0c-0.2,0.1-0.4,0.3-0.5,0.5L507.4,324
	c-0.4,0.7-0.2,1.6,0.5,2c0,0,0,0,0,0c0.2,0.1,0.5,0.2,0.7,0.2h13.5c0.8,0,1.4,0.6,1.5,1.4v16.8c0,0.8,0.6,1.4,1.4,1.4c0,0,0,0,0,0
	h17.7c0.8,0,1.5-0.6,1.5-1.4v0l0,0v-8.1c0-0.8,0.6-1.4,1.4-1.4c0,0,0,0,0,0h16.8c0.8,0,1.5,0.6,1.5,1.4v0l0,0v8.1
	c0,0.8,0.6,1.5,1.5,1.5l0,0H583c0.8,0,1.4-0.7,1.5-1.5v-16.8c0-0.8,0.7-1.4,1.5-1.4h13.5c0.8,0,1.5-0.6,1.5-1.4c0,0,0,0,0,0
	C600.9,324.5,600.9,324.3,600.7,324z M537.5,332.7c-0.3,0.3-0.6,0.4-1,0.4h-6.4c-0.8,0-1.5-0.6-1.5-1.4v0l0,0c0-0.8,0.7-1.4,1.5-1.5
	h6.4c0.8,0,1.5,0.6,1.5,1.4v0l0,0C537.9,332.1,537.7,332.5,537.5,332.7L537.5,332.7z M579.1,332.7c-0.3,0.3-0.6,0.4-1,0.4h-6.4
	c-0.8,0-1.4-0.7-1.4-1.5c0-0.4,0.2-0.7,0.4-1c0.3-0.3,0.6-0.4,1-0.4h6.4c0.8,0,1.5,0.6,1.5,1.4v0l0,0
	C579.6,332.1,579.4,332.5,579.1,332.7L579.1,332.7z"/>
<g>
	<path class="st5" d="M405.3,320.1c-8.5,0-15.4-2-20.3-6c-5.6-4.4-8.8-11-9.5-19.7c-0.3-2.7,0.6-5.4,2.5-7.3
		c1.5-1.5,3.4-2.4,5.5-2.6h0.8c2.1,0,4.2,0.8,5.7,2.2c1.8,1.6,2.8,3.9,3.1,6.3c0.4,5,1.9,6.6,3,7.5c1.8,1.5,4.9,2.2,9.1,2.2
		c2.9,0.1,5.8-0.7,8.3-2.1c3-1.8,3-3.3,3-4.2c0-0.4,0-0.8,0-1.2c-0.1-1.4,0.9-2.5,2.3-2.6c1.4-0.1,2.5,0.9,2.6,2.3c0,0,0,0,0,0
		c0,0.5,0,1,0,1.5c0,3.6-1.8,6.5-5.5,8.6c-3.2,1.9-7,2.9-10.7,2.8c-5.4,0-9.4-1-12.1-3.2c-2.9-2.2-4.6-5.9-5-11
		c-0.1-1.1-0.6-2.2-1.4-3c-0.7-0.6-1.5-0.9-2.5-0.9h-0.4c-0.9,0.1-1.8,0.5-2.4,1.1c-0.8,0.8-1.2,2-1.1,3.2
		c0.6,7.4,3.2,12.8,7.6,16.3c4.1,3.3,9.9,5,17.3,5c6.6,0,12.2-1.7,16.5-5c4.8-3.3,7.5-8.7,7.4-14.5c-0.1-4.9-1.8-9.7-4.9-13.6
		c-2.3-2.4-6.4-6.9-22.7-5.9c-9.1,0.6-16-1.2-20.3-5.4c-2.6-2.5-4.2-6-4.4-9.6c0-7.3,2.8-13.1,8.2-17.2c5-3.7,11.7-5.5,19.8-5.5
		c8.4,0,15.1,2.4,19.9,7.1c2.6,2.6,4.6,5.9,5.8,9.4c0.4,1.3-0.2,2.7-1.5,3.2c-1.3,0.4-2.7-0.3-3.1-1.5c0,0,0,0,0,0
		c-0.9-2.8-2.4-5.4-4.5-7.5c-3.8-3.8-9.4-5.7-16.4-5.7s-12.7,1.6-16.9,4.6c-4.2,3.2-6.2,7.5-6.2,13.2c0.2,2.3,1.2,4.4,2.9,6
		c3.2,3.1,8.9,4.4,16.5,4c16.3-1.1,22.6,3.2,26.6,7.4c4,4.8,6.2,10.8,6.3,17c0.2,7.4-3.3,14.3-9.4,18.6
		C419.5,318.1,413,320.1,405.3,320.1z"/>
	<g>
		<g transform="translate(353 215.01)">
			
				<image style="overflow:visible;enable-background:new    ;" width="104" height="128" id="image-28" xlink:href="AD1CDEB4.png"  transform="matrix(1 0 0 1 353 215.0099)">
			</image>
		</g>
	</g>
	<g>
		<g transform="translate(353 215.02)">
			
				<image style="overflow:visible;enable-background:new    ;" width="104" height="128" xlink:href="AD1CDEBB.png"  transform="matrix(1 0 0 1 353 215.0199)">
			</image>
		</g>
	</g>
	<path class="st5" d="M405.3,319.2c-8.3,0-15-2-19.8-5.8c-5.4-4.2-8.4-10.6-9.1-19.1c-0.3-2.4,0.5-4.8,2.2-6.5
		c1.3-1.4,3.1-2.2,5-2.3h0.7c1.9,0,3.7,0.7,5.1,2c1.6,1.5,2.6,3.5,2.8,5.7c0.3,4,1.4,6.6,3.4,8.2s5.2,2.4,9.6,2.4
		c3.1,0.1,6.1-0.7,8.7-2.3c3-1.8,3.5-3.5,3.5-5c0-0.5,0-0.9,0-1.3c-0.1-0.9,0.6-1.6,1.4-1.7c0.8,0,1.6,0.6,1.6,1.5c0,0.5,0,1,0,1.5
		c0,2.1-0.5,5.2-5,7.8c-3.1,1.8-6.7,2.7-10.3,2.7c-5.2,0-9-1-11.5-3c-2.7-2.1-4.2-5.5-4.6-10.4c-0.1-1.4-0.7-2.7-1.7-3.6
		c-0.8-0.8-1.9-1.2-3.1-1.2h-0.5c-2.6,0.2-4.6,2.5-4.4,5.2c0,0.1,0,0.2,0,0.2c0.6,7.6,3.3,13.3,8,16.9c4.2,3.4,10.3,5.1,17.9,5.1
		c6.8,0,12.5-1.7,17.1-5.1c5-3.5,7.9-9.2,7.7-15.2c-0.1-5.2-1.9-10.2-5.2-14.2c-2.4-2.5-6.8-7.2-23.4-6.2
		c-8.9,0.6-15.5-1.2-19.6-5.1c-2.5-2.3-3.9-5.5-4.1-8.9c0-6.9,2.6-12.5,7.9-16.5c4.9-3.6,11.3-5.4,19.2-5.4c8.1,0,14.6,2.3,19.2,6.9
		c2.5,2.6,4.4,5.7,5.5,9.1c0.3,0.8-0.2,1.7-1,2c-0.8,0.3-1.7-0.1-1.9-0.9c0,0,0,0,0-0.1c-0.9-3-2.6-5.7-4.8-7.9c-4-4-9.7-6-17-6
		s-13.1,1.6-17.4,4.8c-4.4,3.3-6.6,8-6.6,13.9c0.2,2.5,1.3,4.9,3.2,6.7c3.5,3.3,9.2,4.8,17.2,4.2c15.9-1,21.8,2.8,25.8,7.1
		c3.8,4.6,5.9,10.4,6,16.4c0.2,7.1-3.2,13.7-9,17.8C419.1,317.2,412.8,319.2,405.3,319.2z"/>
	<path class="st5" d="M405.3,318.2c-8.1,0-14.6-1.9-19.2-5.6c-5.1-4-8.1-10.2-8.8-18.4c-0.3-2.1,0.4-4.3,1.9-5.8
		c1.2-1.2,2.7-1.9,4.4-2.1c0.2,0,0.4,0,0.6,0c1.7,0,3.3,0.6,4.5,1.7c1.4,1.3,2.3,3.1,2.5,5.1c0.3,4.3,1.5,7.1,3.8,8.8
		s5.6,2.5,10.2,2.5c3.2,0.1,6.4-0.8,9.2-2.4c3.5-2,3.9-4.1,3.9-5.9c0-0.5,0-0.9,0-1.3c0-0.3,0.2-0.6,0.6-0.7c0.3,0,0.6,0.2,0.6,0.5
		c0,0,0,0.1,0,0.1c0,0.5,0,0.9,0,1.4c0,2-0.5,4.6-4.5,7c-3,1.7-6.4,2.6-9.8,2.5c-4.9,0-8.6-0.9-10.9-2.8c-2.5-1.9-3.9-5.1-4.3-9.7
		c-0.1-1.6-0.8-3.1-2-4.3c-1-0.9-2.3-1.4-3.7-1.4h-0.5c-1.4,0.1-2.7,0.7-3.6,1.7c-1.2,1.3-1.8,3-1.6,4.8c0.7,7.9,3.5,13.7,8.3,17.6
		c4.4,3.5,10.6,5.3,18.4,5.3c7,0,12.9-1.8,17.6-5.3c5.2-3.6,8.3-9.6,8.1-16c-0.1-5.4-2-10.7-5.4-14.9c-3.7-3.9-9.1-7.4-24.1-6.5
		c-8.6,0.6-15-1.1-18.9-4.9c-2.3-2.1-3.6-5.1-3.8-8.2c0-6.6,2.5-11.9,7.5-15.7c4.7-3.4,11-5.2,18.7-5.2c7.9,0,14.1,2.2,18.6,6.6
		c2.4,2.5,4.2,5.4,5.3,8.7c0.1,0.3-0.1,0.7-0.4,0.8c-0.3,0.1-0.7-0.1-0.8-0.4c0,0,0,0,0,0c-1-3.1-2.7-5.9-5-8.2
		c-4.2-4.1-10.1-6.3-17.7-6.3s-13.5,1.7-17.9,4.9c-4.6,3.5-7,8.5-7,14.7c0.2,2.8,1.4,5.4,3.4,7.3c3.6,3.5,9.7,5.1,17.9,4.5
		c15.5-1,21.2,2.7,25.1,6.9c3.7,4.4,5.7,10,5.8,15.7c0.2,6.8-3.1,13.1-8.6,17C418.7,316.3,412.5,318.2,405.3,318.2z"/>
	<path class="st5" d="M491.9,323.6c-15.3,0-27.8-5.6-37.1-16.7c-9.2-10.6-13.9-25-13.9-42.7c0-17.3,4.7-31.6,13.9-42.4
		c9.4-11.2,21.9-16.9,37.1-16.9c13.3,0,24.3,3.6,32.5,10.7c6.1,5.4,10.5,12.5,12.7,20.3c0.3,2-1.1,3.9-3.1,4.2
		c-1.7,0.3-3.3-0.6-3.9-2.2c-1.8-6.5-5.4-12.4-10.5-16.9c-6.9-5.9-16.2-8.9-27.7-8.9c-12.9,0-23.5,4.8-31.5,14.3
		s-12.2,22.2-12.2,37.7c0,15.9,4.1,28.6,12.1,37.9s18.5,14.1,31.5,14.1c11.5,0,20.8-3.2,27.6-9.6c5.8-5.3,9.9-12.5,12-21.6
		c0.5-1.7,0.2-3.6-0.7-5.1c-1.8-2.7-5.5-3.6-8.3-2c-1.5,0.9-2.4,2.3-2.7,4c-1.8,8.5-5.3,14.7-10.3,18.5c-4.5,3.3-10.4,5-17.7,5
		c-9.5,0-17.2-3.4-22.8-10c-6.1-7.2-9.3-17.7-9.3-31.3c0.1-2,1.8-3.6,3.9-3.5c1.9,0.1,3.4,1.6,3.5,3.5c0,11.7,2.5,20.7,7.5,26.5
		c4.3,5,9.8,7.4,17.3,7.4c5.6,0,10.1-1.2,13.3-3.6c3.5-2.7,6.1-7.4,7.5-14.1c0.7-3.8,3-7,6.3-8.9c2.9-1.7,6.4-2.2,9.7-1.4
		c3.4,0.7,6.4,2.8,8.3,5.8c2,3.2,2.7,7.1,1.7,10.7c-2.5,10.6-7.3,19.1-14.3,25.4C516.2,319.8,505.3,323.6,491.9,323.6z"/>
	<g>
		<g transform="translate(407 171.01)">
			
				<image style="overflow:visible;enable-background:new    ;" width="166" height="186" id="image-29" xlink:href="AD1CDEBC.png"  transform="matrix(1 0 0 1 407 171.0099)">
			</image>
		</g>
	</g>
	<g>
		<g transform="translate(407 171.02)">
			
				<image style="overflow:visible;enable-background:new    ;" width="166" height="186" xlink:href="AD1CDEBD.png"  transform="matrix(1 0 0 1 407 171.0199)">
			</image>
		</g>
	</g>
	<path class="st5" d="M491.9,322.3c-14.9,0-27-5.4-36-16.2c-9-10.4-13.6-24.5-13.6-41.8c0-17,4.6-30.9,13.6-41.5
		c9.1-10.9,21.3-16.4,36-16.4c13,0,23.6,3.5,31.6,10.3c5.9,5.2,10.2,12.1,12.3,19.7c0.4,1.2-0.4,2.5-1.6,2.8
		c-1.2,0.4-2.5-0.4-2.8-1.6c-1.8-6.8-5.6-12.9-10.9-17.5c-7.1-6.1-16.8-9.2-28.6-9.2c-13.4,0-24.3,5-32.5,14.8s-12.5,22.8-12.5,38.6
		c0,16.2,4.2,29.3,12.5,38.8s19.1,14.6,32.6,14.6c11.8,0,21.4-3.3,28.6-9.9c6-5.5,10.2-13,12.5-22.3c0.6-2.1,0.2-4.3-0.9-6.2
		c-1-1.7-2.7-2.8-4.7-3.2c-1.9-0.5-3.8-0.2-5.5,0.8c-1.8,1.1-3,2.9-3.4,4.9c-1.8,8.2-5,14.1-9.8,17.7c-4.2,3.2-9.9,4.8-16.8,4.8
		c-9.2,0-16.4-3.1-21.8-9.5c-5.9-7-8.9-17.2-8.9-30.4c0.1-1.3,1.2-2.2,2.4-2.1c1.2,0.1,2.1,1,2.1,2.1c0,12.1,2.6,21.3,7.8,27.4
		c4.5,5.3,10.5,7.9,18.3,7.9c5.9,0,10.7-1.3,14.1-3.8c3.8-2.9,6.6-7.9,8-14.9c0.6-3.4,2.7-6.3,5.6-8c2.6-1.5,5.8-2,8.7-1.3
		c3.1,0.6,5.8,2.5,7.5,5.2c1.8,2.9,2.4,6.4,1.5,9.7c-2.5,10.3-7.1,18.6-13.8,24.7C515.5,318.5,504.9,322.3,491.9,322.3z"/>
	<path class="st5" d="M491.9,320.9c-14.4,0-26.2-5.3-35-15.7c-8.8-10.1-13.2-23.9-13.2-40.9c0-16.6,4.5-30.3,13.3-40.6
		c8.9-10.6,20.6-15.9,35-15.9c12.6,0,23,3.4,30.7,10c5.7,5.1,9.8,11.7,11.9,19c0.1,0.5-0.1,1-0.6,1.1c-0.5,0.1-1-0.1-1.1-0.6
		c-1.9-7-5.8-13.3-11.3-18.2c-7.4-6.3-17.4-9.6-29.5-9.6c-13.8,0-25.1,5.1-33.6,15.3s-12.8,23.3-12.8,39.5
		c0,16.5,4.3,29.9,12.8,39.7c8.4,10,19.7,15,33.6,15c12.2,0,22.1-3.5,29.5-10.3c6.2-5.6,10.5-13.4,12.9-23c0.6-2.5,0.2-5.1-1.1-7.3
		c-1.2-2-3.2-3.4-5.5-3.8c-2.2-0.5-4.5-0.2-6.4,0.9c-2.2,1.3-3.6,3.4-4,5.9c-1.7,7.8-4.8,13.4-9.3,16.8c-4,3-9.4,4.5-16,4.5
		c-8.8,0-15.6-2.9-20.7-9c-5.7-6.7-8.6-16.6-8.6-29.5c0.1-0.5,0.5-0.9,1-0.8c0.4,0,0.8,0.4,0.8,0.8c0,12.4,2.8,21.9,8.2,28.3
		c4.8,5.6,11.1,8.4,19.4,8.4c6.2,0,11.3-1.4,14.9-4.1c4.1-3.1,7-8.4,8.6-15.7c0.5-3,2.3-5.6,5-7.1c2.3-1.3,5.1-1.7,7.7-1.1
		c2.8,0.6,5.2,2.2,6.7,4.6c1.6,2.6,2.1,5.7,1.4,8.7c-2.4,10-6.9,18-13.4,23.9C514.9,317.3,504.5,320.9,491.9,320.9z"/>
	<path class="st5" d="M311.5,321.4h-18.7c-6.6,0-12.3-2.4-16.3-7c-3.5-4-5.3-9.2-5.2-14.5v-89c0-2,1.6-3.7,3.7-3.7
		c2,0,3.7,1.6,3.7,3.7v89c-0.1,3.6,1.1,7.1,3.4,9.8c2.7,3,6.6,4.7,10.7,4.5h18.7c14.7,0,26.5-5,34.9-14.9
		c7.8-9.1,11.8-20.8,11.8-34.9c0-14-3.9-25.7-11.7-34.8c-8.4-10-20.2-15-34.9-15h-10.9c-1.2-0.1-2.4,0.3-3.3,1
		c-0.9,0.8-1.3,2.2-1.3,4.2v81.1c0.1,2-1.4,3.8-3.5,3.9s-3.8-1.4-3.9-3.5c0-0.1,0-0.3,0-0.4v-81.1c0-5.2,2-8.1,3.7-9.6
		c2.4-2,5.4-3.1,8.6-2.8h10.5c17,0,30.6,5.9,40.5,17.6c9,10.4,13.5,23.7,13.5,39.5s-4.6,29.2-13.6,39.6
		C342.1,315.5,328.5,321.4,311.5,321.4z"/>
	<g>
		<g transform="translate(238 174.01)">
			
				<image style="overflow:visible;enable-background:new    ;" width="161" height="181" id="image-30" xlink:href="AD1CDEBA.png"  transform="matrix(1 0 0 1 238 174.0099)">
			</image>
		</g>
	</g>
	<g>
		<g transform="translate(238 174.02)">
			
				<image style="overflow:visible;enable-background:new    ;" width="161" height="181" xlink:href="AD1CDEB9.png"  transform="matrix(1 0 0 1 238 174.0199)">
			</image>
		</g>
	</g>
	<path class="st5" d="M311.5,320h-18.7c-6.2,0-11.5-2.3-15.2-6.6c-3.2-3.8-5-8.7-4.9-13.6v-89c0-1.3,1-2.3,2.3-2.3
		c1.3,0,2.3,1,2.3,2.3v89c-0.1,3.9,1.3,7.7,3.8,10.7c3,3.3,7.3,5.2,11.7,5h18.7c15.2,0,27.2-5.2,35.9-15.4
		c8-9.3,12.1-21.4,12.1-35.7c0-14.4-4.1-26.4-12.1-35.7c-8.7-10.3-20.8-15.5-35.9-15.5h-10.9c-1.5-0.1-3,0.4-4.2,1.3
		c-1.2,1.1-1.7,2.8-1.7,5.2v81.1c-0.1,1.3-1.2,2.2-2.4,2.1c-1.2-0.1-2.1-1-2.1-2.1v-81.1c0-3.8,1.1-6.7,3.3-8.6
		c2.1-1.8,4.8-2.7,7.5-2.5h10.6c16.6,0,29.8,5.8,39.4,17.1c8.7,10.1,13.2,23.2,13.2,38.7c0,15.5-4.5,28.5-13.2,38.7
		C341.3,314.3,328,320,311.5,320z"/>
	<path class="st5" d="M311.5,318.7h-18.7c-5.4,0.2-10.6-2.1-14.2-6.1c-3-3.6-4.6-8.1-4.5-12.8v-89c0-0.5,0.4-0.9,0.9-0.9
		c0.5,0,0.9,0.4,0.9,0.9v89c-0.1,4.2,1.4,8.3,4.1,11.5c3.2,3.6,7.9,5.6,12.8,5.5h18.7c15.6,0,28-5.4,36.9-15.9
		c8.3-9.6,12.5-21.9,12.5-36.6c0-14.7-4.2-27-12.4-36.6c-9-10.6-21.4-16-37-16h-10.8c-1.9-0.1-3.7,0.5-5.1,1.7
		c-1.5,1.3-2.2,3.4-2.2,6.3v81.2c0.1,0.5-0.3,1-0.8,1c-0.5,0.1-1-0.3-1-0.8c0-0.1,0-0.1,0-0.2v-81.1c0-3.4,1-5.9,2.8-7.6
		c1.8-1.5,4.1-2.3,6.4-2.1h10.8c16.1,0,29.1,5.6,38.4,16.6c8.5,9.9,12.9,22.6,12.9,37.8c0,15.1-4.3,27.9-12.9,37.8
		C340.5,313.1,327.6,318.7,311.5,318.7z"/>
	<path class="st5" d="M171.9,190.9c-10.9,0-19.8-3.7-26.3-11c-5.7-6.3-8.8-14.5-8.6-23c-0.1-3.6,1.3-7.1,3.8-9.7
		c2.4-2.3,5.6-3.6,9-3.7h0.7c2.9,0,5.6,0.9,7.9,2.7c3.1,2.3,4.9,6,4.8,9.9c0,3.1,0.7,5.4,2.1,7c0.9,1,2.6,2.4,6.6,2.4
		s5.6-1.3,6.4-2.3c1.5-1.7,2.3-4.5,2.3-8.2l-0.1-79c0-2,1.6-3.7,3.6-3.7c0,0,0,0,0,0l0,0c2,0,3.7,1.6,3.7,3.7v0l0.1,79
		c0,5.6-1.4,9.9-4,13s-6.8,4.9-12,4.9s-9.3-1.6-12.1-4.9c-2.6-3-3.9-6.9-3.9-11.8c0.1-1.6-0.6-3-1.8-4c-1-0.8-2.3-1.3-3.6-1.3H150
		c-1.5,0-3,0.6-4.1,1.7c-1.1,1.2-1.6,2.8-1.5,4.4c-0.2,6.7,2.2,13.2,6.7,18.1c5.1,5.7,12.1,8.5,20.9,8.5s15.7-2.9,20.7-8.6
		c4.7-5.1,7-11.6,7-19.1v-80c-0.1-2,1.4-3.8,3.5-3.9s3.8,1.4,3.9,3.5c0,0.1,0,0.3,0,0.4v80c0,9.4-3,17.5-8.9,24
		C191.7,187.2,182.9,190.9,171.9,190.9z"/>
	<g>
		<g transform="translate(103 39.01)">
			
				<image style="overflow:visible;enable-background:new    ;" width="138" height="185" id="image-31" xlink:href="AD1CDEA8.png"  transform="matrix(1 0 0 1 103 39.0099)">
			</image>
		</g>
	</g>
	<g>
		<g transform="translate(103 39.02)">
			
				<image style="overflow:visible;enable-background:new    ;" width="138" height="185" xlink:href="AD1CDEA9.png"  transform="matrix(1 0 0 1 103 39.0199)">
			</image>
		</g>
	</g>
	<path class="st5" d="M171.9,189.5c-10.5,0-19-3.5-25.3-10.5c-5.5-6-8.4-14-8.3-22.1c-0.3-6.3,4.6-11.7,11-12c0.2,0,0.3,0,0.5,0h0.6
		c2.6,0,5,0.8,7.1,2.4c2.8,2.1,4.4,5.4,4.3,8.8c0,3.4,0.8,6,2.4,7.9s4.2,2.8,7.6,2.8s5.8-0.9,7.5-2.8s2.6-5,2.6-9.1l-0.1-79
		c0-1.3,1-2.3,2.3-2.3l0,0c1.3,0,2.3,1,2.3,2.3c0,0,0,0,0,0l0.1,79c0,5.2-1.3,9.3-3.7,12.1s-6.1,4.4-10.9,4.4s-8.5-1.5-11.1-4.4
		c-2.4-2.8-3.6-6.3-3.6-10.9c0.1-2-0.8-3.9-2.4-5.1c-1.2-1-2.8-1.5-4.4-1.5H150c-1.9,0-3.7,0.7-5.1,2c-1.4,1.5-2.1,3.4-2,5.4
		c-0.2,7,2.3,13.9,7.1,19.1c5.4,6,12.8,9,21.9,9s16.5-3.1,21.7-9.1c4.9-5.4,7.4-12.1,7.4-20v-80c0-1.3,1-2.3,2.3-2.3
		c1.3,0,2.3,1,2.3,2.3v80c0,9.1-2.9,16.8-8.5,23.1C190.9,186,182.4,189.5,171.9,189.5z"/>
	<path class="st5" d="M171.9,188.2c-10.1,0-18.3-3.4-24.3-10c-5.2-5.8-8.1-13.4-7.9-21.2c-0.1-2.9,1-5.7,3-7.7
		c1.9-1.8,4.5-2.8,7.1-2.9h0.6c2.3,0,4.4,0.7,6.2,2.1c2.5,1.8,3.9,4.7,3.8,7.7c0,3.8,0.9,6.6,2.8,8.8s4.8,3.3,8.7,3.3
		s6.6-1.1,8.5-3.3s2.9-5.6,2.9-10l-0.1-79c0-0.5,0.4-0.9,0.9-0.9l0,0l0,0c0.5,0,0.9,0.4,0.9,0.9v0l0.1,79c0,4.9-1.1,8.6-3.4,11.2
		s-5.5,3.9-9.9,3.9s-7.7-1.3-10.1-3.9c-2.2-2.5-3.2-5.8-3.2-10c0.1-2.5-1-4.8-3-6.3c-1.6-1.3-3.6-1.9-5.7-1.7
		c-4.6-0.1-8.3,3.6-8.4,8.2c0,0.2,0,0.4,0,0.6c-0.2,7.4,2.5,14.5,7.4,20c5.6,6.3,13.4,9.4,22.9,9.4s17.2-3.2,22.8-9.5
		c5.1-5.6,7.7-12.7,7.7-20.9V76c-0.1-0.5,0.3-1,0.8-1s1,0.3,1,0.8c0,0.1,0,0.1,0,0.2v80c0,8.7-2.8,16.2-8.2,22.1
		C190.1,184.7,182,188.2,171.9,188.2z"/>
	<path class="st5" d="M400.3,188.7h-50.7c-6.6,0-12.3-2.4-16.3-7.1c-3.5-4-5.3-9.2-5.2-14.5V85.6c-0.1-3.6,1.3-7.1,3.8-9.6
		c2.5-2.4,5.8-3.7,9.3-3.7c7.2,0,13.1,5.8,13.1,13c0,0.1,0,0.3,0,0.4v81c0.1,2-1.4,3.8-3.5,3.9s-3.8-1.4-3.9-3.5c0-0.1,0-0.3,0-0.4
		v-81c0.1-1.7-0.6-3.4-1.9-4.6c-1.1-1-2.4-1.5-3.9-1.5c-3.1-0.1-5.7,2.2-5.8,5.3c0,0.2,0,0.5,0,0.7v81.5c-0.1,3.6,1.1,7.1,3.4,9.8
		c2.7,3,6.6,4.7,10.7,4.5h50.7c2,0,3.7,1.6,3.7,3.7S402.3,188.7,400.3,188.7C400.3,188.7,400.3,188.7,400.3,188.7L400.3,188.7z"/>
	<g>
		<g transform="translate(295 39.01)">
			
				<image style="overflow:visible;enable-background:new    ;" width="143" height="184" id="image-32" xlink:href="AD1CDEAA.png"  transform="matrix(1 0 0 1 295 39.0099)">
			</image>
		</g>
	</g>
	<g>
		<g transform="translate(295 39.02)">
			
				<image style="overflow:visible;enable-background:new    ;" width="143" height="184" xlink:href="52C2FFA.png"  transform="matrix(1 0 0 1 295 39.0199)">
			</image>
		</g>
	</g>
	<path class="st5" d="M400.3,187.3h-50.7c-6.2,0-11.5-2.3-15.2-6.6c-3.2-3.8-5-8.6-4.9-13.6V85.6c-0.1-3.2,1.1-6.4,3.4-8.7
		c2.2-2.1,5.2-3.3,8.3-3.3c6.5,0,11.7,5.2,11.7,11.6c0,0.1,0,0.2,0,0.4v81c0,1.3-1,2.3-2.3,2.3c-1.3,0-2.3-1-2.3-2.3c0,0,0,0,0,0
		v-81c0.1-2.1-0.8-4.2-2.4-5.6c-1.3-1.2-3-1.8-4.8-1.8c-3.8-0.1-7,2.9-7.2,6.7c0,0.2,0,0.5,0,0.7v81.5c-0.1,3.9,1.3,7.7,3.8,10.7
		c3,3.3,7.3,5.2,11.7,5h50.7c1.3,0,2.3,1,2.3,2.3C402.6,186.3,401.6,187.3,400.3,187.3L400.3,187.3z"/>
	<path class="st5" d="M400.3,186h-50.7c-5.4,0.2-10.6-2.1-14.2-6.1c-3-3.5-4.6-8.1-4.5-12.7V85.6c-0.1-2.9,1-5.7,3-7.7
		c2-1.9,4.6-2.9,7.4-2.9c5.7,0,10.3,4.6,10.4,10.3c0,0.1,0,0.2,0,0.3v81c0,0.5-0.4,0.9-0.9,0.9c-0.5,0-0.9-0.4-0.9-0.9c0,0,0,0,0,0
		v-81c0.1-2.5-1-4.9-2.8-6.6c-1.6-1.4-3.6-2.2-5.7-2.2c-4.6-0.1-8.4,3.5-8.5,8c0,0.3,0,0.5,0,0.8v81.5c-0.1,4.2,1.4,8.3,4.1,11.6
		c3.2,3.6,7.9,5.6,12.8,5.5h50.7c0.5,0,0.9,0.4,0.9,0.9S400.8,185.9,400.3,186C400.3,185.9,400.3,185.9,400.3,186L400.3,186z"/>
	<path class="st5" d="M573.7,185.6h-0.6c-3.3-0.2-6.4-1.6-8.7-3.9c-2.5-2.6-3.9-6.2-3.8-9.8V81.1c0-7.4,4.5-13,11.5-14.2
		c0.8-0.1,1.7-0.2,2.5-0.2c5.1,0,9.9,2.6,12.6,7c0.1,0.2,0.2,0.4,0.3,0.6l40.7,101.4c1.5,2.1,4.2,3,6.7,2.2c4.3-1.1,4.9-4.9,4.9-7.1
		V70.6c-0.1-2,1.4-3.8,3.5-3.9c2-0.1,3.8,1.4,3.9,3.5c0,0.1,0,0.3,0,0.4v100.2c0,7.1-4,12.5-10.3,14.1c-1.3,0.4-2.7,0.6-4.1,0.6
		c-4.5,0-8.7-2.3-11-6.3c-0.1-0.2-0.2-0.4-0.3-0.5L580.8,77.4c-1.4-2.1-3.7-3.4-6.3-3.3c-0.5,0-1,0-1.4,0.1
		c-3.3,0.6-5.3,3.1-5.3,6.9v90.8c0,1.8,0.6,3.5,1.8,4.8c1,1,2.4,1.6,3.8,1.7h0.3c1.5,0,2.9-0.6,4-1.7c1.2-1.3,1.9-3,1.8-4.8v-61.8
		c-0.1-2,1.4-3.8,3.5-3.9c2-0.1,3.8,1.4,3.9,3.5c0,0.1,0,0.3,0,0.4v61.8c0.1,3.7-1.3,7.3-4,9.9C580.5,184.3,577.2,185.7,573.7,185.6
		z"/>
	<g>
		<g transform="translate(527 33.01)">
			
				<image style="overflow:visible;enable-background:new    ;" width="154" height="187" id="image-33" xlink:href="52C2FFB.png"  transform="matrix(1 0 0 1 527 33.0099)">
			</image>
		</g>
	</g>
	<g>
		<g transform="translate(527 33.02)">
			
				<image style="overflow:visible;enable-background:new    ;" width="154" height="187" xlink:href="52C2FFC.png"  transform="matrix(1 0 0 1 527 33.0199)">
			</image>
		</g>
	</g>
	<path class="st5" d="M573.7,184.2h-0.5c-2.9-0.2-5.7-1.5-7.8-3.5c-2.2-2.4-3.5-5.6-3.4-8.8V81.1c0-6.7,4-11.8,10.3-12.8
		c0.8-0.1,1.5-0.2,2.3-0.2c4.7,0,9,2.4,11.4,6.3c0.1,0.1,0.1,0.2,0.2,0.4l40.7,101.5c1.2,2,3.4,3.3,5.8,3.2c0.8,0,1.7-0.1,2.5-0.4
		c3.8-1,5.9-4,5.9-8.4V70.6c0-1.3,1-2.3,2.3-2.3c1.3,0,2.3,1,2.3,2.3v100.2c0,6.4-3.5,11.3-9.3,12.8c-1.2,0.4-2.5,0.5-3.7,0.5
		c-4,0-7.8-2.1-9.8-5.6c-0.1-0.1-0.1-0.2-0.2-0.3L582,76.8c-1.6-2.6-4.4-4.1-7.5-4.1c-0.5,0-1.1,0-1.6,0.1c-4,0.7-6.5,3.8-6.5,8.3
		v90.8c0,2.1,0.7,4.1,2.2,5.7c1.3,1.3,3,2,4.8,2.1h0.3c1.9,0,3.7-0.7,5-2.1c1.5-1.5,2.3-3.6,2.2-5.7v-61.8c0-1.3,1-2.3,2.3-2.3
		c1.3,0,2.3,1,2.3,2.3v61.8c0.1,3.3-1.2,6.6-3.5,8.9C579.8,183,576.8,184.3,573.7,184.2z"/>
	<path class="st5" d="M573.7,182.9h-0.5c-2.6-0.2-5-1.3-6.9-3.1c-2-2.1-3-5-3-7.9V81.1c0-6.1,3.5-10.5,9.2-11.4
		c0.7-0.1,1.4-0.2,2.1-0.2c4.2,0,8.1,2.1,10.3,5.7L625.7,177c1.5,2.5,4.1,3.9,7,3.9c1,0,2-0.1,2.9-0.4c4.3-1.1,6.9-4.8,6.9-9.7V70.6
		c0-0.5,0.4-0.9,0.9-0.9c0.5,0,0.9,0.4,0.9,0.9v100.2c0,5.8-3.1,10.1-8.3,11.5c-1.1,0.3-2.2,0.5-3.4,0.5c-3.6,0-6.9-1.9-8.6-4.9
		L583.2,76.1c-1.9-3-5.1-4.8-8.7-4.7c-0.6,0-1.2,0-1.8,0.1c-4.7,0.8-7.6,4.5-7.6,9.6v90.8c0,2.4,0.9,4.8,2.5,6.6
		c1.5,1.5,3.5,2.4,5.7,2.5h0.4c2.3,0,4.4-0.9,6-2.5c1.7-1.8,2.7-4.2,2.6-6.7v-61.7c-0.1-0.5,0.3-1,0.8-1c0.5-0.1,1,0.3,1,0.8
		c0,0.1,0,0.1,0,0.2v61.8c0.1,3-1.1,5.9-3.2,8C579.1,181.8,576.4,182.9,573.7,182.9z"/>
	<path class="st5" d="M268,188.3c-14.3,0-25.7-4.9-33.7-14.5c-6.9-8.1-10.5-18.3-10.5-30.2V83c-0.1-3.6,1.3-7,3.8-9.6
		c4.9-4.6,12.3-4.9,17.6-0.9l0.4,0.4c2.8,2.6,4.4,6.2,4.4,10.1v60.7c0,5.6,1.4,10.1,4.2,13.6c3.1,3.8,7.5,5.5,13.7,5.5
		c2,0.1,3.6,1.8,3.5,3.9c-0.1,1.9-1.6,3.4-3.5,3.5c-8.4,0-14.9-2.8-19.4-8.2c-4-4.9-5.9-10.9-5.9-18.3V83c0.1-1.7-0.6-3.4-1.9-4.6
		l-0.2-0.2c-2.4-1.7-5.7-1.5-7.9,0.5c-1.1,1.1-1.6,2.7-1.5,4.2v60.6c0,10.1,2.9,18.7,8.7,25.5C246.5,177,256,181,268,181
		s21.4-4,27.9-11.8c5.8-6.9,8.8-15.4,8.8-25.6V73.4c0.1-2,1.8-3.6,3.9-3.5c1.9,0.1,3.4,1.6,3.5,3.5v70.2c0,11.9-3.5,22.1-10.5,30.3
		C293.6,183.4,282.3,188.3,268,188.3z"/>
	<g>
		<g transform="translate(190 36.01)">
			
				<image style="overflow:visible;enable-background:new    ;" width="156" height="186" id="image-34" xlink:href="52C2FFD.png"  transform="matrix(1 0 0 1 190 36.0099)">
			</image>
		</g>
	</g>
	<g>
		<g transform="translate(190 36.02)">
			
				<image style="overflow:visible;enable-background:new    ;" width="156" height="186" xlink:href="52C2FF8.png"  transform="matrix(1 0 0 1 190 36.0199)">
			</image>
		</g>
	</g>
	<path class="st5" d="M268,186.9c-13.9,0-24.9-4.7-32.7-14c-6.7-7.9-10.1-17.8-10.1-29.4V83c-0.1-3.2,1.2-6.3,3.4-8.6
		c4.4-4.1,11-4.4,15.8-0.8l0.4,0.3c2.6,2.3,4,5.6,3.9,9v60.7c0,6,1.5,10.7,4.5,14.5c3.3,4.1,8.2,6,14.8,6c1.3,0.1,2.2,1.2,2.1,2.4
		c-0.1,1.2-1,2.1-2.1,2.1c-8.1,0-14.1-2.5-18.4-7.7c-3.8-4.6-5.6-10.3-5.6-17.4V83c0.1-2.1-0.8-4.1-2.3-5.6l-0.3-0.2
		c-1.3-1-2.9-1.5-4.5-1.5c-1.9,0-3.8,0.7-5.2,2c-1.3,1.4-2.1,3.3-2,5.2v60.6c0,10.5,3.1,19.3,9.1,26.4c6.9,8.2,16.7,12.4,29.2,12.4
		c12.5,0,22.1-4.1,29-12.3c6-7.1,9.1-16,9.1-26.4V73.4c0-1.3,1-2.3,2.3-2.3c1.3,0,2.3,1,2.3,2.3v70.2c0,11.6-3.4,21.5-10.2,29.4
		C292.8,182.2,281.9,186.9,268,186.9z"/>
	<path class="st5" d="M268,185.5c-13.5,0-24.1-4.5-31.6-13.5c-6.5-7.6-9.8-17.2-9.8-28.5V83c-0.1-2.8,1-5.6,3-7.6
		c3.9-3.6,9.8-3.9,14-0.7l0.3,0.3c2.3,2,3.5,5,3.4,8v60.7c0,6.3,1.6,11.3,4.9,15.3c3.6,4.4,8.8,6.6,15.9,6.6c0.5-0.1,1,0.3,1,0.8
		c0.1,0.5-0.3,1-0.8,1c-0.1,0-0.1,0-0.2,0c-7.6,0-13.3-2.4-17.3-7.2c-3.6-4.4-5.3-9.8-5.3-16.5V83c0.1-2.5-0.9-4.9-2.8-6.6l-0.3-0.2
		c-3.5-2.6-8.3-2.4-11.5,0.6c-1.6,1.7-2.5,3.9-2.5,6.3v60.6c0,10.8,3.2,20,9.4,27.3c7.1,8.5,17.3,12.8,30.2,12.8s22.9-4.3,30-12.8
		c6.3-7.4,9.4-16.5,9.4-27.3V73.4c0-0.5,0.4-0.9,0.9-0.9c0.5,0,0.9,0.4,0.9,0.9v70.2c0,11.2-3.3,20.8-9.9,28.5
		C292,181,281.4,185.5,268,185.5z"/>
	<path class="st5" d="M434,186.2c-2,0-3.7-1.6-3.7-3.7l0,0V82.1c0-3.2-1.8-5-4.9-5h-0.4c-3.1,0.1-5,1.9-5.1,4.9
		c-0.2,4.6-1.6,7.9-4.1,9.8c-2.2,1.7-5.6,2.5-10,2.5c-2.3-0.2-4.4,1.5-4.6,3.8c0,0.3,0,0.7,0,1c0.1,2.9,2,4.7,5,4.7h9
		c2,0,3.7,1.6,3.7,3.7c0,2-1.6,3.7-3.7,3.7h-9c-7,0-12-4.8-12.3-11.7c-0.5-6.3,4.2-11.9,10.5-12.5c0.5,0,1-0.1,1.4,0
		c4.1,0,5.4-0.8,5.6-1c0.5-0.4,1.1-1.8,1.3-4.3c0.3-6.8,5.2-11.6,12.2-11.9h0.5c7.2,0,12.3,5.1,12.3,12.3v100.5
		C437.7,184.6,436.1,186.2,434,186.2C434,186.2,434,186.2,434,186.2z"/>
	<g>
		<g transform="translate(360 36.01)">
			
				<image style="overflow:visible;enable-background:new    ;" width="111" height="184" id="image-35" xlink:href="52C2FF9.png"  transform="matrix(1 0 0 1 360 36.0099)">
			</image>
		</g>
	</g>
	<g>
		<g transform="translate(360 36.02)">
			
				<image style="overflow:visible;enable-background:new    ;" width="111" height="184" xlink:href="52C2FE8.png"  transform="matrix(1 0 0 1 360 36.0199)">
			</image>
		</g>
	</g>
	<path class="st5" d="M434,184.8c-1.3,0-2.3-1-2.3-2.3V82.1c0-3.9-2.4-6.4-6.3-6.4H425c-3.8,0.2-6.3,2.5-6.5,6.2
		c-0.2,4.2-1.4,7.1-3.6,8.8c-2,1.5-5.1,2.2-9.2,2.2c-3.1-0.2-5.8,2-6,5.1c0,0.4,0,0.8,0,1.1c0.2,3.7,2.6,6,6.4,6h9
		c1.3,0,2.3,1,2.3,2.3s-1,2.3-2.3,2.3h-9c-6,0-10.9-4.9-10.9-10.9c0-2.7,1-5.3,2.8-7.3c2-2.1,4.9-3.2,7.8-3.1c4.3,0,5.9-0.9,6.4-1.3
		c1-0.8,1.7-2.7,1.8-5.4c0.3-6.1,4.6-10.3,10.9-10.6h0.5c6.4,0,10.9,4.5,10.9,11v100.4C436.3,183.8,435.3,184.9,434,184.8
		C434,184.9,434,184.9,434,184.8z"/>
	<path class="st5" d="M434,183.5c-0.5,0-0.9-0.4-0.9-0.9l0,0V82.1c0-4.7-3-7.8-7.6-7.8H425c-4.5,0.2-7.6,3.1-7.8,7.5
		c-0.2,3.7-1.2,6.3-3.1,7.8s-4.5,2-8.4,2c-3.9-0.2-7.2,2.7-7.4,6.6c0,0.4,0,0.7,0,1.1c0,4.1,3.3,7.3,7.4,7.3c0.1,0,0.2,0,0.4,0h9
		c0.5-0.1,1,0.3,1,0.8c0.1,0.5-0.3,1-0.8,1c-0.1,0-0.1,0-0.2,0h-9c-5.5,0-9.3-3.6-9.6-9c-0.4-4.8,3.1-9.1,8-9.6c0.4,0,0.8,0,1.2,0
		c3.4,0,5.9-0.6,7.3-1.6s2.2-3.2,2.4-6.4c0.2-5.3,4.1-9,9.6-9.3h0.5c5.7,0,9.5,3.9,9.5,9.6v100.4C434.9,183.1,434.5,183.5,434,183.5
		z"/>
	<path class="st5" d="M523.6,188.4c-2,0-3.7-1.6-3.7-3.7v-25.5c0-2,1.6-3.7,3.7-3.7c0,0,0,0,0,0h7c1.5,0.1,2.9-0.5,3.9-1.5
		c1.1-1,1.7-2.4,1.7-3.9c0-1.3-0.5-2.6-1.3-3.6l-0.2-0.2c-1-1-2.3-1.5-3.8-1.5h-7.4c-2,0-3.7-1.6-3.7-3.7c0,0,0,0,0,0v-58
		c0-3.7-1.9-5.9-5.5-6.2h-0.2c-3,0.1-5.7,1.7-7.1,4.3l-40.6,62.2c-1.6,2.2-2.2,5-1.6,7.7c0.6,2.7,3.1,4.5,5.8,4.3H501v-27.6l-9,13.5
		c-1.2,1.6-3.5,1.9-5.1,0.7c-1.5-1.1-1.9-3.2-0.9-4.8l15.8-23.4c1.1-1.7,3.4-2.1,5.1-1c1,0.7,1.6,1.8,1.6,3.1v43.2
		c0,2-1.6,3.7-3.7,3.7c0,0,0,0-0.1,0h-34c-6.2,0.2-11.6-4-13-10c-1-4.6-0.1-9.5,2.6-13.4L501,77.4c2.8-4.7,7.9-7.6,13.3-7.6h0.5
		c7.5,0.5,12.5,6,12.5,13.5v54.4h3.7c3.4,0,6.6,1.3,9,3.7l0.3,0.4c2.1,2.3,3.3,5.4,3.3,8.6c-0.1,7.1-5.9,12.8-13,12.7c0,0,0,0,0,0
		h-3.3v21.8C527.2,186.8,525.6,188.4,523.6,188.4z"/>
	<g>
		<g transform="translate(424 36.01)">
			
				<image style="overflow:visible;enable-background:new    ;" width="154" height="186" id="image-36" xlink:href="52C2FE9.png"  transform="matrix(1 0 0 1 424 36.0099)">
			</image>
		</g>
	</g>
	<g>
		<g transform="translate(424 36.02)">
			
				<image style="overflow:visible;enable-background:new    ;" width="154" height="186" xlink:href="52C2FEA.png"  transform="matrix(1 0 0 1 424 36.0199)">
			</image>
		</g>
	</g>
	<path class="st5" d="M523.6,187.1c-1.3,0-2.3-1-2.3-2.3v-25.5c0-1.3,1-2.3,2.3-2.3h7c3.8,0.1,6.9-3,7-6.8c0,0,0,0,0,0
		c0-1.7-0.6-3.3-1.7-4.5l-0.2-0.2c-1.3-1.2-3-1.9-4.8-1.9h-7.4c-1.3,0-2.3-1-2.3-2.3V83.3c0-4.4-2.5-7.2-6.7-7.6h-0.3
		c-3.4,0.1-6.6,1.9-8.3,4.9l-40.6,62.2c-1.8,2.6-2.4,5.7-1.8,8.8c0.7,3.3,3.8,5.6,7.2,5.4h31.8v-33.4l-11.6,17.2
		c-0.7,1-2.1,1.3-3.2,0.6s-1.3-2.1-0.6-3.2l15.8-23.4c0.7-1,2.1-1.3,3.2-0.6c0.6,0.4,1,1.1,1,1.9l0,43.2c0,1.3-1,2.3-2.3,2.3
		c0,0,0,0,0,0h-34c-5.6,0.2-10.5-3.5-11.7-8.9c-0.9-4.3,0-8.7,2.4-12.3l40.7-62.2c2.6-4.3,7.2-7,12.2-7h0.5
		c6.7,0.5,11.1,5.3,11.1,12.1v55.8h5.1c3,0,5.9,1.2,8,3.3l0.3,0.3c1.9,2.1,2.9,4.8,2.9,7.6c-0.1,6.3-5.3,11.4-11.6,11.3c0,0,0,0,0,0
		h-4.7v23.2C525.9,186,524.9,187.1,523.6,187.1z"/>
	<path class="st5" d="M523.6,185.7c-0.5,0-0.9-0.4-0.9-0.9v-25.5c0-0.5,0.4-0.9,0.9-0.9h7c2.3,0.1,4.5-0.8,6-2.4
		c1.5-1.5,2.4-3.5,2.4-5.7c0-2-0.7-3.9-2-5.4l-0.2-0.2c-1.5-1.5-3.6-2.4-5.8-2.3h-7.4c-0.5,0-0.9-0.4-0.9-0.9V83.3
		c0-5.2-3.1-8.6-8-8.9h-0.4c-3.9,0.1-7.5,2.2-9.5,5.6l-40.6,62.2c-2,2.9-2.7,6.4-2,9.8c0.9,4,4.5,6.7,8.5,6.5h33.1v-39.3L489.7,140
		c-0.3,0.4-0.8,0.5-1.2,0.3c0,0,0,0,0,0c-0.4-0.3-0.5-0.8-0.3-1.3l15.8-23.4c0.2-0.3,0.6-0.5,1-0.4c0.4,0.1,0.7,0.5,0.6,0.9l0,43.2
		c0,0.5-0.4,0.9-0.9,0.9l0,0h-34c-4.9,0.2-9.3-3.1-10.3-7.9c-0.8-3.9,0-7.9,2.3-11.2l40.6-62.2c2.3-3.9,6.5-6.3,11-6.4h0.5
		c6,0.4,9.8,4.7,9.8,10.8v57.2h6.5c2.6,0,5.2,1,7.1,2.9l0.3,0.3c1.6,1.8,2.5,4.2,2.5,6.7c0,5.6-4.6,10-10.2,10c0,0,0,0-0.1,0h-6.1
		v24.5C524.5,185.3,524.1,185.7,523.6,185.7z"/>
</g>
<path class="st3" d="M525.3,103h331.9c10.9,0,19.8,8.9,19.8,19.8v407.8c0,10.9-8.9,19.8-19.8,19.8H525.3c-10.9,0-19.8-8.9-19.8-19.8
	V122.8C505.5,111.8,514.3,103,525.3,103z"/>
<rect x="522" y="148.1" class="st4" width="336" height="357.1"/>
<circle class="st4" cx="691.2" cy="528.8" r="13.1"/>
<path class="st4" d="M691.2,135.2c-3.3,0-6-2.7-6-6s2.7-6,6-6s6,2.7,6,6S694.5,135.2,691.2,135.2z"/>
<path class="st4" d="M691.2,123.6c3.1,0,5.6,2.5,5.6,5.5c0,3.1-2.5,5.6-5.5,5.6c-3.1,0-5.6-2.5-5.6-5.5l0,0l0,0
	C685.7,126.1,688.2,123.6,691.2,123.6 M691.2,122.6c-3.6,0-6.6,2.9-6.6,6.5c0,3.6,2.9,6.6,6.5,6.6c3.6,0,6.6-2.9,6.6-6.5
	c0,0,0,0,0,0l0,0C697.8,125.5,694.9,122.6,691.2,122.6L691.2,122.6L691.2,122.6z"/>
<path class="st3" d="M990.9,269.2h0.8c1.3,0,2.3,1,2.3,2.3V311c0,1.3-1,2.3-2.3,2.3h-0.8c-1.3,0-2.3-1-2.3-2.3v-39.6
	C988.6,270.2,989.7,269.2,990.9,269.2z"/>
<path class="st3" d="M812,234.6L812,234.6c0.8,0,1.5,0.7,1.5,1.5v11.5c0,0.8-0.7,1.5-1.5,1.5h0c-0.8,0-1.5-0.7-1.5-1.5v-11.5
	C810.5,235.2,811.2,234.6,812,234.6z"/>
<path class="st3" d="M812.1,261.2L812.1,261.2c0.9,0,1.7,0.8,1.7,1.7v21.9c0,0.9-0.8,1.7-1.7,1.7h0c-0.9,0-1.7-0.8-1.7-1.7v-21.9
	C810.4,261.9,811.2,261.2,812.1,261.2z"/>
<path class="st3" d="M812.1,295.3L812.1,295.3c0.9,0,1.6,0.7,1.6,1.6v22.3c0,0.9-0.7,1.6-1.6,1.6h0c-0.9,0-1.6-0.7-1.6-1.6v-22.3
	C810.5,296.1,811.2,295.3,812.1,295.3z"/>
<g>
	<path class="st5" d="M698.7,397.8c-4.9,0-8.8-1.2-11.7-3.5c-3.2-2.5-5-6.3-5.5-11.3c-0.2-1.5,0.3-3.1,1.4-4.2
		c0.8-0.9,2-1.4,3.2-1.5h0.4c1.2,0,2.4,0.4,3.3,1.3c1,0.9,1.6,2.2,1.8,3.6c0.2,2.8,1.1,3.8,1.7,4.3c1,0.8,2.8,1.2,5.2,1.2
		c1.7,0,3.3-0.4,4.7-1.2c1.7-1,1.7-1.9,1.7-2.4c0-0.2,0-0.5,0-0.7c-0.1-0.8,0.5-1.5,1.3-1.5c0.8,0,1.5,0.6,1.5,1.3c0,0,0,0,0,0
		c0,0.3,0,0.6,0,0.9c0,2.1-1.2,4-3.2,4.9c-1.9,1.1-4,1.6-6.1,1.6c-3.1,0-5.4-0.6-6.9-1.8s-2.6-3.4-2.8-6.3c-0.1-0.7-0.3-1.3-0.8-1.7
		c-0.4-0.4-0.9-0.5-1.4-0.5h-0.2c-0.5,0-1,0.3-1.4,0.7c-0.5,0.5-0.7,1.2-0.6,1.8c0.3,4.2,1.8,7.4,4.4,9.3c2.3,1.9,5.7,2.8,9.9,2.8
		c3.4,0.1,6.7-0.9,9.5-2.9c2.7-1.9,4.3-5,4.2-8.3c0-2.8-1-5.6-2.8-7.8c-1.3-1.4-3.7-4-13-3.4c-5.2,0.3-9.2-0.7-11.6-3.1
		c-1.5-1.4-2.4-3.4-2.5-5.5c-0.1-3.9,1.6-7.6,4.7-9.9c2.9-2.1,6.7-3.2,11.3-3.2c4.8,0,8.6,1.4,11.4,4.1c1.5,1.5,2.6,3.4,3.3,5.4
		c0.3,0.8-0.1,1.6-0.9,1.8c-0.7,0.3-1.5-0.1-1.8-0.9c0,0,0,0,0,0c-0.5-1.6-1.4-3.1-2.6-4.3c-2.2-2.2-5.4-3.3-9.4-3.3
		s-7.3,0.9-9.7,2.6c-2.4,1.8-3.7,4.6-3.6,7.5c0.1,1.3,0.7,2.5,1.7,3.4c1.8,1.8,5.1,2.5,9.5,2.3c9.3-0.6,13,1.8,15.2,4.3
		c2.3,2.8,3.5,6.2,3.6,9.8c0.1,4.2-1.9,8.2-5.4,10.6C706.6,396.8,702.7,398,698.7,397.8z"/>
	<g>
		<g transform="translate(668 337.01)">
			
				<image style="overflow:visible;enable-background:new    ;" width="61" height="74" id="image-37" xlink:href="52C2FEB.png"  transform="matrix(1 0 0 1 668 337.0099)">
			</image>
		</g>
	</g>
	<g>
		<g transform="translate(668 337.02)">
			
				<image style="overflow:visible;enable-background:new    ;" width="61" height="74" xlink:href="52C3019.png"  transform="matrix(1 0 0 1 668 337.0199)">
			</image>
		</g>
	</g>
	<path class="st5" d="M698.7,397.3c-4.8,0-8.6-1.1-11.3-3.3c-3.1-2.4-4.8-6.1-5.2-11c-0.2-1.4,0.3-2.7,1.3-3.7
		c0.8-0.8,1.8-1.3,2.8-1.4h0.4c1.1,0,2.1,0.4,2.9,1.1c0.9,0.9,1.5,2,1.6,3.3c0.2,2.3,0.8,3.8,2,4.7s3,1.4,5.5,1.4
		c1.8,0,3.5-0.4,5-1.3c1.8-1,2-2,2-2.9c0-0.3,0-0.5,0-0.7c-0.1-0.5,0.3-0.9,0.8-1c0,0,0,0,0,0c0.5,0,0.9,0.4,0.9,0.9
		c0,0.3,0,0.5,0,0.8c0,1.2-0.3,3-2.9,4.5c-1.8,1-3.8,1.6-5.9,1.5c-3,0-5.1-0.6-6.6-1.7s-2.4-3.1-2.6-5.9c-0.1-0.8-0.4-1.5-1-2.1
		c-0.5-0.4-1.1-0.7-1.8-0.7h-0.3c-1.5,0.1-2.6,1.5-2.5,3c0,0,0,0.1,0,0.1c0.4,4.4,1.9,7.6,4.6,9.7c2.4,2,5.9,3,10.3,3
		c3.5,0.1,6.9-0.9,9.8-3c2.9-2,4.5-5.3,4.4-8.7c-0.1-3-1.1-5.8-3-8.1c-1.4-1.5-3.9-4.1-13.4-3.5c-5.1,0.3-8.9-0.7-11.2-3
		c-1.4-1.3-2.2-3.2-2.3-5.1c-0.1-3.7,1.6-7.2,4.5-9.4c2.8-2,6.5-3.1,11-3.1s8.4,1.3,11,3.9c1.4,1.5,2.5,3.3,3.2,5.2
		c0.2,0.5-0.1,1-0.5,1.1c-0.5,0.2-0.9-0.1-1.1-0.5c0,0,0,0,0,0c-0.5-1.7-1.5-3.2-2.7-4.5c-2.3-2.3-5.6-3.4-9.8-3.4s-7.5,0.9-10,2.7
		c-2.5,1.9-3.9,4.9-3.8,8c0.1,1.5,0.7,2.8,1.8,3.8c2,1.9,5.3,2.7,9.9,2.4c9.1-0.6,12.5,1.6,14.8,4.1c2.2,2.6,3.4,6,3.5,9.4
		c0.1,4.1-1.8,7.9-5.2,10.2C706.3,396.1,702.5,397.3,698.7,397.3z"/>
	<path class="st5" d="M698.7,396.7c-4.7,0-8.4-1.1-11-3.2c-3-2.3-4.7-5.9-5-10.6c-0.3-2.2,1.3-4.2,3.4-4.5c0.1,0,0.1,0,0.2,0h0.3
		c1,0,1.9,0.4,2.6,1c0.8,0.8,1.3,1.8,1.4,2.9c0.2,2.5,0.9,4.1,2.2,5s3.2,1.5,5.8,1.5c1.8,0,3.7-0.4,5.3-1.4c2-1.1,2.3-2.3,2.3-3.4
		c0-0.3,0-0.5,0-0.8c0-0.2,0.1-0.4,0.3-0.4c0.2,0,0.4,0.1,0.4,0.3c0,0,0,0,0,0c0,0.3,0,0.5,0,0.8c0,1.2-0.3,2.6-2.6,4
		c-1.7,1-3.6,1.5-5.6,1.5c-2.8,0-4.9-0.5-6.3-1.6s-2.2-2.9-2.4-5.5c-0.1-0.9-0.5-1.8-1.2-2.5c-0.6-0.5-1.3-0.8-2.1-0.8h-0.3
		c-0.8,0.1-1.5,0.4-2.1,1c-0.7,0.7-1,1.7-0.9,2.7c0.4,4.5,2,7.9,4.8,10.1c2.5,2,6.1,3.1,10.6,3.1c3.6,0.1,7.2-1,10.1-3.1
		c3-2.1,4.7-5.5,4.7-9.2c0-3.1-1.1-6.1-3.1-8.5c-2.1-2.3-5.2-4.3-13.8-3.7c-4.9,0.3-8.6-0.6-10.8-2.8c-1.3-1.2-2.1-2.9-2.2-4.7
		c-0.1-3.5,1.5-6.9,4.3-9c2.7-2,6.3-3,10.7-3s8.1,1.3,10.6,3.8c1.4,1.4,2.4,3.1,3,5c0.1,0.2,0,0.4-0.2,0.5c-0.2,0.1-0.4,0-0.4-0.2
		c0,0,0,0,0,0c-0.6-1.8-1.5-3.4-2.8-4.7c-2.4-2.4-5.8-3.6-10.2-3.6s-7.7,1-10.3,2.8c-2.6,2-4.1,5.1-4,8.4c0.1,1.6,0.8,3.1,2,4.2
		c2.1,2,5.5,2.9,10.3,2.6c8.9-0.6,12.2,1.5,14.4,3.9c2.1,2.5,3.3,5.7,3.3,9c0.1,3.9-1.8,7.5-4.9,9.8
		C706.2,395.8,702.5,396.9,698.7,396.7z"/>
	<path class="st5" d="M748.3,399.8c-8.8,0-15.9-3.2-21.3-9.6c-5.3-6.1-8-14.3-8-24.5c0-9.9,2.7-18.1,8-24.3
		c5.4-6.4,12.5-9.7,21.3-9.7c7.6,0,13.9,2.1,18.7,6.1c3.5,3.1,6,7.2,7.3,11.7c0.2,1.1-0.6,2.2-1.7,2.4c-0.9,0.2-1.9-0.4-2.3-1.2
		c-1-3.7-3.1-7.1-6-9.7c-4-3.4-9.3-5.1-15.9-5.1c-7-0.2-13.6,2.8-18,8.2c-4.6,5.5-7,12.7-7,21.6c0,9.1,2.3,16.4,7,21.7
		s10.6,8.1,18.1,8.1c6.6,0,11.9-1.8,15.8-5.5c3.5-3.3,5.9-7.7,6.9-12.4c0.3-1,0.1-2-0.4-2.9c-0.5-0.8-1.3-1.3-2.2-1.5
		c-0.9-0.2-1.8-0.1-2.6,0.4c-0.8,0.5-1.4,1.3-1.5,2.3c-1,4.9-3,8.4-5.9,10.6c-2.6,1.9-6,2.9-10.1,2.9c-5.5,0-9.9-1.9-13.1-5.7
		c-3.5-4.1-5.3-10.2-5.3-17.9c-0.1-1.2,0.8-2.2,2-2.3c1.2-0.1,2.2,0.8,2.3,2c0,0.1,0,0.2,0,0.3c0,6.7,1.5,11.8,4.3,15.2
		c2.5,2.9,5.6,4.2,9.9,4.2c3.2,0,5.8-0.7,7.6-2c2-1.5,3.5-4.3,4.3-8.1c0.4-2.2,1.7-4,3.6-5.1c1.7-1,3.7-1.2,5.6-0.8
		c2,0.4,3.7,1.6,4.8,3.3c1.2,1.8,1.5,4.1,1,6.2c-1.2,5.6-4.1,10.6-8.2,14.5C762.3,397.6,756,399.8,748.3,399.8z"/>
	<g>
		<g transform="translate(700 312.01)">
			
				<image style="overflow:visible;enable-background:new    ;" width="95" height="107" id="image-38" xlink:href="52C300C.png"  transform="matrix(1 0 0 1 700 312.0099)">
			</image>
		</g>
	</g>
	<g>
		<g transform="translate(700 312.02)">
			
				<image style="overflow:visible;enable-background:new    ;" width="95" height="107" xlink:href="52C300E.png"  transform="matrix(1 0 0 1 700 312.0199)">
			</image>
		</g>
	</g>
	<path class="st5" d="M748.3,399.1c-8.5,0-15.5-3.1-20.7-9.3c-5.2-6-7.8-14-7.8-24c0-9.7,2.6-17.7,7.8-23.8
		c5.2-6.3,12.2-9.4,20.7-9.4c7.4,0,13.5,2,18.1,5.9c3.4,3,5.8,6.9,7,11.3c0.3,0.7-0.1,1.4-0.8,1.7s-1.4-0.1-1.7-0.8
		c0-0.1,0-0.1-0.1-0.2c-1.1-3.9-3.2-7.3-6.2-10c-4.1-3.5-9.6-5.3-16.4-5.3c-7.2-0.2-14.1,2.9-18.7,8.5c-4.8,5.6-7.2,13-7.2,22.1
		c0,9.3,2.4,16.8,7.2,22.3s11,8.4,18.7,8.4c6.8,0,12.3-1.9,16.4-5.7c3.6-3.4,6.2-7.9,7.2-12.8c0.3-1.2,0.1-2.5-0.5-3.5
		c-0.6-1-1.6-1.6-2.7-1.8c-1.1-0.3-2.2-0.1-3.1,0.4c-1,0.6-1.7,1.6-1.9,2.8c-1,4.7-2.9,8.1-5.6,10.1c-2.4,1.8-5.7,2.7-9.7,2.7
		c-5.3,0-9.4-1.8-12.5-5.4c-3.4-4-5.1-9.9-5.1-17.4c-0.1-0.7,0.5-1.4,1.2-1.4c0.7-0.1,1.4,0.5,1.4,1.2c0,0.1,0,0.2,0,0.2
		c0,6.9,1.5,12.2,4.5,15.7c2.6,3,6,4.5,10.5,4.5c3.4,0,6.1-0.7,8.1-2.2c2.2-1.7,3.8-4.5,4.6-8.5c0.3-1.9,1.5-3.6,3.2-4.6
		c1.5-0.9,3.3-1.1,5-0.7c1.8,0.4,3.3,1.5,4.3,3c1.1,1.7,1.4,3.7,0.9,5.6c-1.1,5.4-3.9,10.3-7.9,14.1
		C761.9,396.9,755.8,399.1,748.3,399.1z"/>
	<path class="st5" d="M748.3,398.3c-8.3,0-15-3-20.1-9s-7.6-13.7-7.6-23.5c0-9.5,2.6-17.4,7.6-23.3c4.9-6,12.3-9.4,20.1-9.1
		c7.2,0,13.2,1.9,17.6,5.7c3.3,2.9,5.6,6.7,6.8,10.9c0,0.3-0.2,0.5-0.5,0.6c-0.2,0-0.4-0.1-0.5-0.3c-1.1-4-3.4-7.6-6.5-10.4
		c-4.3-3.6-10-5.5-16.9-5.5c-7.4-0.2-14.5,3-19.3,8.8c-4.9,5.7-7.3,13.4-7.3,22.6c0,9.5,2.5,17.1,7.3,22.8s11.3,8.6,19.3,8.6
		c7,0,12.7-2,16.9-5.9c3.7-3.5,6.3-8.1,7.4-13.2c0.4-1.4,0.1-2.9-0.6-4.1c-0.7-1.1-1.9-1.9-3.2-2.2c-1.2-0.3-2.6-0.1-3.7,0.5
		c-1.2,0.7-2.1,2-2.3,3.4c-1,4.5-2.8,7.7-5.3,9.6c-2.3,1.7-5.4,2.6-9.2,2.6c-5,0-8.9-1.7-11.9-5.2c-3.3-3.8-4.9-9.5-4.9-16.9
		c0-0.3,0.2-0.5,0.5-0.5l0,0c0.3,0,0.5,0.2,0.5,0.5c0,0,0,0,0,0c0,7.1,1.6,12.6,4.7,16.2c2.8,3.2,6.4,4.8,11.1,4.8
		c3.6,0,6.5-0.8,8.5-2.4c2.3-1.8,4-4.8,4.9-9c0.3-1.7,1.3-3.2,2.8-4.1c1.3-0.8,2.9-1,4.4-0.6c1.6,0.3,3,1.3,3.8,2.6
		c0.9,1.5,1.2,3.3,0.8,5c-1.1,5.2-3.8,10-7.7,13.7C761.5,396.2,755.6,398.3,748.3,398.3z"/>
	<path class="st5" d="M644.9,398.6h-10.7c-3.5,0.1-7-1.3-9.3-4c-2-2.3-3.1-5.3-3-8.3v-51c0.1-1.2,1.1-2,2.3-2c1.1,0.1,1.9,0.9,2,2
		v51c-0.1,2.1,0.7,4,2,5.6c1.6,1.7,3.8,2.7,6.1,2.6h10.7c8.5,0,15.2-2.9,20-8.6c4.5-5.2,6.8-11.9,6.8-20s-2.3-14.8-6.7-20
		c-4.8-5.7-11.6-8.6-20-8.6h-6.2c-0.7-0.1-1.4,0.1-1.9,0.5c-0.6,0.7-0.8,1.5-0.7,2.4v46.5c0,1.2-0.9,2.1-2.1,2.1
		c-1.2,0-2.1-0.9-2.1-2.1v-46.5c-0.1-2.1,0.7-4.1,2.1-5.5c1.4-1.2,3.1-1.7,4.9-1.6h6c9.7,0,17.5,3.4,23.2,10.1
		c5.1,6,7.7,13.6,7.7,22.7s-2.6,16.7-7.8,22.7C662.4,395.2,654.6,398.6,644.9,398.6z"/>
	<g>
		<g transform="translate(602 314.01)">
			
				<image style="overflow:visible;enable-background:new    ;" width="93" height="104" id="image-39" xlink:href="52C3032.png"  transform="matrix(1 0 0 1 602 314.0099)">
			</image>
		</g>
	</g>
	<g>
		<g transform="translate(602 314.02)">
			
				<image style="overflow:visible;enable-background:new    ;" width="93" height="104" xlink:href="52C3033.png"  transform="matrix(1 0 0 1 602 314.0199)">
			</image>
		</g>
	</g>
	<path class="st5" d="M644.9,397.8h-10.7c-3.3,0.1-6.5-1.3-8.7-3.8c-1.9-2.2-2.9-5-2.8-7.8v-51c-0.1-0.7,0.5-1.4,1.2-1.4
		c0.7-0.1,1.4,0.5,1.4,1.2c0,0.1,0,0.2,0,0.2v51c0,2.2,0.7,4.4,2.2,6.1c1.7,1.9,4.2,2.9,6.7,2.9h10.7c8.7,0,15.6-3,20.6-8.8
		c4.6-5.4,7-12.3,7-20.5s-2.3-15.1-6.9-20.5c-5-5.9-11.9-8.9-20.6-8.9h-6.2c-0.9-0.1-1.7,0.2-2.4,0.8c-0.7,0.8-1.1,1.9-1,3v46.5
		c0,0.7-0.6,1.3-1.3,1.3c-0.7,0-1.3-0.6-1.3-1.3v-46.5c-0.1-1.8,0.6-3.6,1.9-5c1.2-1,2.7-1.5,4.3-1.4h6.1c9.5,0,17.1,3.3,22.6,9.8
		c5,5.8,7.6,13.3,7.6,22.2s-2.6,16.4-7.6,22.2C662,394.5,654.4,397.8,644.9,397.8z"/>
	<path class="st5" d="M644.9,397h-10.7c-3.1,0.1-6.1-1.2-8.1-3.5c-1.7-2-2.7-4.6-2.6-7.3v-51c0-0.3,0.2-0.5,0.5-0.5c0,0,0,0,0,0
		c0.3,0,0.5,0.2,0.5,0.5v0v51c-0.1,2.4,0.8,4.8,2.3,6.6c1.9,2.1,4.5,3.2,7.3,3.1h10.7c8.9,0,16.1-3.1,21.2-9.1
		c4.7-5.5,7.2-12.6,7.2-21s-2.4-15.5-7.1-21c-5.1-6.1-12.3-9.1-21.2-9.1h-6.2c-1.1-0.1-2.1,0.3-3,1c-0.9,1-1.4,2.3-1.3,3.6v46.5
		c0,0.3-0.2,0.5-0.5,0.5c0,0,0,0,0,0c-0.3,0-0.5-0.2-0.5-0.5l0,0v-46.5c-0.1-1.6,0.5-3.2,1.6-4.4c1-0.9,2.4-1.3,3.7-1.2h6.2
		c9.3,0,16.7,3.2,22,9.5c4.9,5.7,7.4,13,7.4,21.7s-2.5,16-7.4,21.7C661.5,393.8,654.2,397,644.9,397z"/>
	<path class="st5" d="M564.8,323.7c-6.3,0-11.3-2.1-15.1-6.3c-3.3-3.6-5-8.3-4.9-13.2c-0.1-2.1,0.7-4.1,2.2-5.5
		c1.4-1.3,3.2-2.1,5.2-2.1h0.4c1.6,0,3.2,0.5,4.5,1.5c1.8,1.3,2.8,3.4,2.8,5.7c-0.1,1.4,0.3,2.9,1.2,4c0.5,0.6,1.5,1.4,3.8,1.4
		s3.2-0.8,3.7-1.3c1-1.4,1.4-3,1.3-4.7l-0.1-45.3c0-1.2,0.9-2.1,2.1-2.1l0,0c1.2,0,2.1,0.9,2.1,2.1l0.1,45.3c0,3.2-0.8,5.7-2.3,7.5
		c-1.8,1.9-4.3,2.9-6.9,2.8c-2.6,0.2-5.2-0.9-7-2.8c-1.6-1.9-2.4-4.3-2.2-6.8c0.1-0.9-0.3-1.7-1-2.3c-0.6-0.5-1.3-0.7-2-0.7h-0.3
		c-0.9,0-1.7,0.4-2.3,1c-0.6,0.7-0.9,1.6-0.9,2.5c-0.1,3.8,1.3,7.5,3.8,10.4c2.9,3.3,7,4.9,12,4.9s9-1.7,11.9-4.9c2.7-3,4.1-7,4-11
		v-45.9c0.1-1.2,1.1-2,2.3-2c1.1,0.1,1.9,0.9,2,2v45.9c0.1,5.1-1.7,10-5.1,13.8C576.2,321.6,571.1,323.7,564.8,323.7z"/>
	<g>
		<g transform="translate(525 236.01)">
			
				<image style="overflow:visible;enable-background:new    ;" width="80" height="107" id="image-40" xlink:href="52C3034.png"  transform="matrix(1 0 0 1 525 236.0099)">
			</image>
		</g>
	</g>
	<g>
		<g transform="translate(525 236.02)">
			
				<image style="overflow:visible;enable-background:new    ;" width="80" height="107" xlink:href="52C3035.png"  transform="matrix(1 0 0 1 525 236.0199)">
			</image>
		</g>
	</g>
	<path class="st5" d="M564.8,323c-6,0-10.9-2-14.5-6c-3.1-3.5-4.8-8-4.7-12.7c-0.2-3.6,2.7-6.7,6.3-6.9c0.1,0,0.2,0,0.3,0h0.4
		c1.4,0,2.9,0.5,4,1.4c1.6,1.2,2.5,3.1,2.5,5.1c-0.1,1.6,0.4,3.2,1.4,4.5c1.1,1.2,2.8,1.8,4.4,1.6c1.6,0.2,3.2-0.4,4.3-1.6
		c1.1-1.5,1.6-3.4,1.5-5.2l-0.1-45.3c0-0.7,0.6-1.3,1.3-1.3l0,0c0.7,0,1.3,0.6,1.3,1.3l0.1,45.3c0,3-0.7,5.3-2.1,6.9
		c-1.6,1.8-3.9,2.7-6.3,2.5c-2.4,0.2-4.7-0.8-6.4-2.5c-1.4-1.8-2.1-4-2-6.3c0.1-1.1-0.5-2.2-1.4-2.9c-0.7-0.6-1.6-0.9-2.5-0.9h-0.3
		c-2.2-0.1-4,1.6-4.1,3.8c0,0.1,0,0.3,0,0.4c-0.1,4,1.3,7.9,4,10.9c3.1,3.4,7.3,5.2,12.5,5.2s9.5-1.8,12.5-5.2
		c2.8-3.1,4.3-7.3,4.2-11.5v-45.9c0.1-0.7,0.7-1.3,1.4-1.2c0.6,0.1,1.1,0.6,1.2,1.2v45.9c0.1,4.9-1.6,9.6-4.9,13.2
		C575.8,320.9,570.9,323,564.8,323z"/>
	<path class="st5" d="M564.8,322.2c-5.8,0-10.5-1.9-13.9-5.8c-3-3.3-4.6-7.7-4.5-12.1c-0.2-3.2,2.3-5.9,5.5-6.1c0.1,0,0.2,0,0.3,0
		h0.4c1.3,0,2.5,0.4,3.6,1.2c1.4,1,2.2,2.7,2.2,4.4c-0.1,1.8,0.5,3.6,1.6,5c1.3,1.3,3.1,2,5,1.9c1.8,0.2,3.6-0.5,4.9-1.9
		c1.2-1.6,1.8-3.7,1.7-5.7l-0.1-45.3c0-0.3,0.2-0.5,0.5-0.5c0,0,0,0,0,0l0,0c0.3,0,0.5,0.2,0.5,0.5l0,0l0.1,45.3
		c0,2.8-0.7,5-1.9,6.4c-1.4,1.6-3.5,2.4-5.7,2.3c-2.2,0.2-4.3-0.7-5.8-2.3c-1.3-1.6-2-3.7-1.8-5.7c0.1-1.4-0.6-2.8-1.7-3.6
		c-0.9-0.7-2.1-1.1-3.3-1c-2.6,0-4.8,2.1-4.8,4.7c0,0.1,0,0.2,0,0.3c-0.1,4.2,1.4,8.3,4.3,11.5c3.2,3.6,7.7,5.4,13.1,5.4
		s9.9-1.8,13-5.5c3-3.3,4.5-7.6,4.4-12v-45.8c0-0.3,0.2-0.5,0.5-0.5c0,0,0,0,0,0c0.3,0,0.5,0.2,0.5,0.5l0,0v45.9
		c0.1,4.7-1.6,9.2-4.7,12.7C575.3,320.2,570.7,322.2,564.8,322.2z"/>
	<path class="st5" d="M695.8,322.5h-29c-3.5,0.1-7-1.3-9.3-4c-2-2.3-3.1-5.3-3-8.3v-46.8c-0.1-2.1,0.7-4.1,2.2-5.5
		c1.4-1.4,3.3-2.1,5.3-2.1c4.1,0,7.5,3.3,7.5,7.5c0,0.1,0,0.1,0,0.2v46.4c-0.1,1.2-1.1,2-2.3,2c-1.1-0.1-1.9-0.9-2-2v-46.4
		c0-1-0.4-2-1.1-2.6c-0.6-0.5-1.4-0.8-2.2-0.8c-1.8-0.1-3.3,1.3-3.3,3.1c0,0.1,0,0.3,0,0.4v46.7c-0.1,2.1,0.7,4,2,5.6
		c1.6,1.7,3.8,2.7,6.1,2.6h29c1.2,0,2.1,0.9,2.1,2.1S697,322.5,695.8,322.5L695.8,322.5z"/>
	<g>
		<g transform="translate(635 236.01)">
			
				<image style="overflow:visible;enable-background:new    ;" width="83" height="106" id="image-41" xlink:href="52C3036.png"  transform="matrix(1 0 0 1 635 236.0099)">
			</image>
		</g>
	</g>
	<g>
		<g transform="translate(635 236.02)">
			
				<image style="overflow:visible;enable-background:new    ;" width="83" height="106" xlink:href="52C3037.png"  transform="matrix(1 0 0 1 635 236.0199)">
			</image>
		</g>
	</g>
	<path class="st5" d="M695.8,321.7h-29c-3.3,0.1-6.5-1.3-8.7-3.8c-1.9-2.2-2.9-5-2.8-7.8v-46.7c0-1.9,0.7-3.7,2-5
		c1.3-1.2,3-1.9,4.7-1.9c3.7,0,6.7,3,6.7,6.7c0,0.1,0,0.1,0,0.2v46.4c-0.1,0.7-0.7,1.3-1.4,1.2c-0.6-0.1-1.1-0.6-1.2-1.2v-46.4
		c0-1.2-0.5-2.4-1.3-3.2c-0.8-0.7-1.7-1-2.8-1c-2.2-0.1-4.1,1.7-4.1,3.9c0,0.1,0,0.2,0,0.4v46.7c0,2.2,0.7,4.4,2.2,6.1
		c1.7,1.9,4.2,3,6.7,2.9h29c0.7,0,1.3,0.6,1.3,1.3C697.1,321.1,696.6,321.7,695.8,321.7L695.8,321.7z"/>
	<path class="st5" d="M695.8,320.9h-29c-3.1,0.1-6.1-1.2-8.1-3.5c-1.7-2-2.7-4.6-2.6-7.3v-46.7c0-1.7,0.6-3.3,1.7-4.4
		c1.1-1.1,2.6-1.7,4.2-1.6c3.3,0,5.9,2.6,5.9,5.9c0,0.1,0,0.1,0,0.2v46.4c-0.1,0.3-0.4,0.4-0.7,0.3c-0.2-0.1-0.3-0.2-0.3-0.3v-46.4
		c0-1.4-0.6-2.8-1.6-3.8c-0.9-0.8-2.1-1.2-3.3-1.2c-2.6-0.1-4.8,2-4.9,4.6c0,0.1,0,0.3,0,0.4v46.8c-0.1,2.4,0.8,4.8,2.3,6.6
		c1.9,2.1,4.5,3.2,7.3,3.1h29c0.3,0,0.5,0.2,0.5,0.5C696.4,320.7,696.2,320.9,695.8,320.9C695.9,320.9,695.9,320.9,695.8,320.9
		L695.8,320.9z"/>
	<path class="st5" d="M795.2,320.7h-0.3c-1.9-0.1-3.7-0.9-5-2.3c-1.4-1.5-2.2-3.5-2.2-5.6v-52c-0.2-4,2.6-7.5,6.6-8.1
		c0.5-0.1,1-0.1,1.5-0.1c2.9,0,5.7,1.5,7.2,4c0.1,0.1,0.1,0.2,0.2,0.4l23.3,58c0.9,1.2,2.4,1.7,3.8,1.3c1.8-0.5,3-2.2,2.8-4v-57.5
		c0-1.2,0.9-2.1,2.1-2.1c1.2,0,2.1,0.9,2.1,2.1v57.5c0,4-2.3,7.1-5.9,8.1c-0.8,0.2-1.5,0.3-2.3,0.3c-2.6,0-5-1.3-6.3-3.6
		c-0.1-0.1-0.1-0.2-0.2-0.3l-23.3-58.1c-0.8-1.2-2.1-1.9-3.6-1.9c-0.3,0-0.5,0-0.8,0.1c-1.9,0.3-3,1.8-3,4v52c0,1,0.3,2,1,2.7
		c0.6,0.6,1.4,0.9,2.2,1h0.2c0.9,0,1.7-0.4,2.3-1c0.7-0.7,1.1-1.7,1-2.7v-35.4c0.1-1.2,1.1-2,2.3-2c1.1,0.1,1.9,0.9,2,2v35.4
		c0,2.1-0.8,4.2-2.3,5.7C799.1,319.9,797.2,320.7,795.2,320.7z"/>
	<g>
		<g transform="translate(768 233.01)">
			
				<image style="overflow:visible;enable-background:new    ;" width="89" height="108" id="image-42" xlink:href="52C3038.png"  transform="matrix(1 0 0 1 768 233.0099)">
			</image>
		</g>
	</g>
	<g>
		<g transform="translate(768 233.02)">
			
				<image style="overflow:visible;enable-background:new    ;" width="89" height="108" xlink:href="52C302B.png"  transform="matrix(1 0 0 1 768 233.0199)">
			</image>
		</g>
	</g>
	<path class="st5" d="M795.2,319.9h-0.3c-1.7-0.1-3.3-0.8-4.5-2c-1.3-1.4-2-3.2-2-5.1v-52c-0.2-3.6,2.4-6.8,5.9-7.3
		c0.4-0.1,0.9-0.1,1.3-0.1c2.7-0.1,5.2,1.3,6.6,3.6c0,0.1,0.1,0.1,0.1,0.2l23.3,58.2c0.7,1.2,2,1.9,3.3,1.9c0.5,0,1-0.1,1.4-0.2
		c2.2-0.6,3.4-2.3,3.4-4.8v-57.5c0-0.7,0.6-1.3,1.3-1.3c0.7,0,1.3,0.6,1.3,1.3c0,0,0,0,0,0v57.5c0.2,3.4-2,6.5-5.3,7.3
		c-0.7,0.2-1.4,0.3-2.1,0.3c-2.3,0-4.5-1.2-5.6-3.2l-0.1-0.2L800,258.3c-0.9-1.5-2.5-2.3-4.3-2.3c-0.3,0-0.6,0-0.9,0.1
		c-2.3,0.4-3.7,2.2-3.7,4.7v52c0,1.2,0.4,2.4,1.2,3.3c0.7,0.7,1.7,1.2,2.7,1.2h0.2c1.1,0,2.1-0.4,2.8-1.2c0.8-0.9,1.3-2.1,1.3-3.3
		v-35.4c0.1-0.7,0.7-1.3,1.4-1.2c0.6,0.1,1.1,0.6,1.2,1.2v35.4c0.1,1.9-0.7,3.8-2,5.1C798.7,319.2,797,319.9,795.2,319.9z"/>
	<path class="st5" d="M795.2,319.1H795c-1.5-0.1-2.9-0.7-4-1.8c-1.1-1.2-1.8-2.8-1.7-4.5v-52c0-3.5,2-6,5.3-6.6
		c0.4-0.1,0.8-0.1,1.2-0.1c2.4,0,4.6,1.2,5.9,3.3l23.4,58.4c0.8,1.4,2.4,2.3,4,2.3c0.6,0,1.1-0.1,1.7-0.3c2.5-0.6,4-2.7,4-5.6v-57.5
		c0-0.3,0.2-0.5,0.5-0.5l0,0c0.3,0,0.5,0.2,0.5,0.5c0,0,0,0,0,0v57.5c0,3.4-1.8,5.8-4.7,6.6c-0.6,0.2-1.3,0.3-2,0.3
		c-2.1,0-4-1-5-2.8l-23.4-58.4c-1.1-1.7-3-2.7-5-2.7c-0.3,0-0.7,0-1,0.1c-2.7,0.4-4.4,2.6-4.4,5.5v52c0,1.4,0.5,2.8,1.5,3.8
		c0.9,0.9,2,1.4,3.2,1.5h0.2c1.3,0,2.5-0.5,3.5-1.4c1-1,1.5-2.4,1.5-3.8v-35.4c0-0.3,0.2-0.5,0.5-0.5l0,0c0.3,0,0.5,0.2,0.5,0.5
		c0,0,0,0,0,0v35.4c0,1.7-0.6,3.4-1.8,4.6C798.3,318.5,796.8,319.1,795.2,319.1z"/>
	<path class="st5" d="M620,322.2c-8.2,0-14.7-2.8-19.3-8.3c-4-4.9-6.2-11-6-17.3v-34.7c0-2,0.8-4,2.2-5.5c2.8-2.6,7-2.8,10.1-0.5
		l0.3,0.2c1.6,1.5,2.5,3.6,2.5,5.8v34.8c-0.1,2.8,0.7,5.6,2.4,7.8c1.8,2.2,4.3,3.2,7.9,3.2c1.2,0,2.1,0.9,2.1,2.1s-0.9,2.1-2.1,2.1
		c-4.8,0-8.6-1.6-11.1-4.7c-2.3-3-3.5-6.7-3.4-10.5v-34.8c0-1-0.3-1.9-1.1-2.6l-0.1-0.1c-1.4-1-3.3-0.9-4.5,0.3
		c-0.6,0.7-0.9,1.5-0.9,2.4v34.7c-0.2,5.3,1.6,10.5,5,14.6c3.8,4.5,9.2,6.8,16.1,6.8s12.3-2.3,16-6.8c3.4-4.1,5.2-9.3,5-14.7v-40.2
		c0-1.2,0.9-2.1,2.1-2.1c1.2,0,2.1,0.9,2.1,2.1v40.2c0.2,6.3-2,12.5-6,17.4C634.6,319.4,628.2,322.2,620,322.2z"/>
	<g>
		<g transform="translate(575 235.01)">
			
				<image style="overflow:visible;enable-background:new    ;" width="90" height="107" id="image-43" xlink:href="52C3010.png"  transform="matrix(1 0 0 1 575 235.0099)">
			</image>
		</g>
	</g>
	<g>
		<g transform="translate(575 235.02)">
			
				<image style="overflow:visible;enable-background:new    ;" width="90" height="107" xlink:href="52C3012.png"  transform="matrix(1 0 0 1 575 235.0199)">
			</image>
		</g>
	</g>
	<path class="st5" d="M620,321.4c-8,0-14.3-2.7-18.7-8c-3.9-4.7-6-10.7-5.8-16.8v-34.8c0-1.8,0.7-3.6,2-4.9c2.5-2.3,6.3-2.5,9-0.4
		l0.2,0.2c1.5,1.3,2.3,3.2,2.2,5.2v34.8c-0.1,3,0.8,5.9,2.6,8.3c1.9,2.3,4.7,3.5,8.5,3.5c0.7,0.1,1.3,0.7,1.2,1.4
		c-0.1,0.6-0.6,1.1-1.2,1.2c-4.6,0-8.1-1.5-10.5-4.4c-2.2-2.8-3.4-6.4-3.2-10v-34.8c0-1.2-0.4-2.4-1.3-3.2l-0.2-0.1
		c-1.7-1.3-4-1.1-5.6,0.3c-0.8,0.8-1.2,1.9-1.1,3v34.7c-0.2,5.5,1.7,10.9,5.2,15.1c3.9,4.7,9.6,7.1,16.7,7.1s12.7-2.4,16.6-7
		c3.5-4.3,5.4-9.6,5.2-15.2v-40.2c-0.1-0.7,0.5-1.4,1.2-1.4c0.7-0.1,1.4,0.5,1.4,1.2c0,0.1,0,0.2,0,0.2v40.2
		c0.2,6.1-1.9,12.1-5.8,16.9C634.2,318.8,627.9,321.4,620,321.4z"/>
	<path class="st5" d="M620,320.7c-7.7,0-13.8-2.6-18.1-7.7c-3.8-4.6-5.8-10.4-5.6-16.3v-34.7c0-1.6,0.6-3.2,1.7-4.4
		c2.2-2.1,5.6-2.2,8-0.4l0.2,0.2c1.3,1.2,2,2.8,2,4.6v34.8c-0.1,3.2,0.8,6.3,2.8,8.8c2.1,2.5,5.1,3.8,9.1,3.8c0.3,0,0.5,0.2,0.5,0.5
		l0,0c0,0.3-0.2,0.5-0.5,0.5c0,0,0,0,0,0c-4.4,0-7.6-1.4-9.9-4.1c-2.1-2.7-3.2-6.1-3-9.5v-34.8c0-1.4-0.5-2.8-1.6-3.8l-0.2-0.1
		c-2-1.5-4.8-1.4-6.6,0.3c-0.9,1-1.4,2.3-1.4,3.6v34.7c-0.2,5.7,1.7,11.3,5.4,15.6c4.1,4.9,9.9,7.4,17.3,7.4s13.2-2.5,17.2-7.3
		c3.6-4.4,5.6-10,5.4-15.7v-40.2c0-0.3,0.2-0.5,0.5-0.5l0,0c0.3,0,0.5,0.2,0.5,0.5c0,0,0,0,0,0v40.2c0.2,6-1.9,11.8-5.7,16.4
		C633.7,318.1,627.7,320.7,620,320.7z"/>
	<path class="st5" d="M715.2,321.1c-1.2,0-2.1-0.9-2.1-2.1v-57.6c0.2-1.4-0.8-2.7-2.3-2.9c-0.2,0-0.4,0-0.5,0H710
		c-1.5-0.1-2.8,1.1-2.9,2.6c0,0.1,0,0.2,0,0.2c-0.1,2.6-0.9,4.5-2.4,5.6c-1.3,1-3.2,1.5-5.8,1.5c-1.5,0-2.7,1.2-2.7,2.7
		c0,1.5,1.2,2.7,2.7,2.7c0.1,0,0.2,0,0.2,0h5.1c1.2,0.1,2,1.1,2,2.3c-0.1,1.1-0.9,1.9-2,2h-5.1c-3.8,0.1-7-3-7-6.8
		c-0.1-3.8,3-7,6.8-7c2.3,0,3.1-0.5,3.2-0.6c0.3-0.2,0.7-1,0.7-2.5c0.1-3.8,3.2-6.9,7-6.8h0.3c3.7-0.1,6.9,2.7,7,6.5
		c0,0.2,0,0.4,0,0.6V319C717.2,320.1,716.3,321,715.2,321.1z"/>
	<g>
		<g transform="translate(673 235.01)">
			
				<image style="overflow:visible;enable-background:new    ;" width="64" height="106" id="image-44" xlink:href="52C3013.png"  transform="matrix(1 0 0 1 673 235.0099)">
			</image>
		</g>
	</g>
	<g>
		<g transform="translate(673 235.02)">
			
				<image style="overflow:visible;enable-background:new    ;" width="64" height="106" xlink:href="52C301F.png"  transform="matrix(1 0 0 1 673 235.0199)">
			</image>
		</g>
	</g>
	<path class="st5" d="M715.2,320.3c-0.7,0-1.3-0.6-1.3-1.3v-57.6c0.2-1.8-1.2-3.5-3-3.7c-0.2,0-0.4,0-0.6,0H710
		c-2-0.1-3.6,1.5-3.7,3.4c0,0,0,0.1,0,0.1c-0.1,2.4-0.8,4.1-2.1,5s-2.9,1.3-5.3,1.3c-1.8-0.1-3.3,1.2-3.4,3c0,0.2,0,0.4,0,0.6
		c0,1.9,1.5,3.4,3.3,3.4c0.1,0,0.2,0,0.3,0h5.1c0.7,0.1,1.3,0.7,1.2,1.4c-0.1,0.6-0.6,1.1-1.2,1.2h-5.1c-3.3,0.2-6.1-2.4-6.3-5.7
		c0-0.1,0-0.2,0-0.2c-0.3-3.2,2.1-6,5.3-6.3c0.2,0,0.5,0,0.7,0c2.5,0,3.4-0.5,3.7-0.8c0.6-0.5,1-1.5,1-3.1c0.1-3.4,2.9-6.1,6.3-6
		h0.3c3.3-0.1,6.1,2.4,6.2,5.8c0,0.2,0,0.4,0,0.5V319C716.5,319.7,715.9,320.3,715.2,320.3z"/>
	<path class="st5" d="M715.2,319.5c-0.3,0-0.5-0.2-0.5-0.5l0,0v-57.6c0.2-2.3-1.5-4.3-3.8-4.4c-0.2,0-0.4,0-0.6,0H710
		c-2.4-0.1-4.4,1.8-4.5,4.2c0,0,0,0,0,0.1c-0.1,2.1-0.7,3.6-1.8,4.5s-2.6,1.1-4.8,1.1c-2.4,0-4.3,1.9-4.4,4.2s1.9,4.3,4.2,4.4
		c0.1,0,0.2,0,0.3,0h5.1c0.3,0,0.6,0.2,0.6,0.5c0,0.3-0.2,0.6-0.5,0.6c0,0-0.1,0-0.1,0h-5.1c-2.9,0.2-5.3-2-5.5-4.9
		c0-0.1,0-0.2,0-0.3c-0.2-2.8,1.8-5.2,4.6-5.5c0.2,0,0.4,0,0.7,0c1.4,0.1,2.9-0.2,4.2-0.9c0.8-0.6,1.3-1.8,1.3-3.7
		c0.1-3,2.5-5.4,5.5-5.3h0.3c2.9-0.1,5.3,2,5.4,4.9c0,0.2,0,0.4,0,0.6V319C715.7,319.3,715.4,319.5,715.2,319.5z"/>
	<path class="st5" d="M766.5,322.3c-1.2,0-2.1-0.9-2.1-2.1v-14.6c0-1.2,0.9-2.1,2.1-2.1h4c0.8,0,1.7-0.3,2.3-0.9
		c0.6-0.6,1-1.4,1-2.2c0-0.8-0.3-1.5-0.8-2.1l-0.1-0.1c-0.6-0.6-1.4-0.9-2.2-0.9h-4.2c-1.2,0-2.1-0.9-2.1-2.1V262
		c0-2.1-1.1-3.4-3.1-3.5h-0.1c-1.7,0.1-3.2,1-4.1,2.5l-23.3,35.7c-0.9,1.3-1.2,2.9-0.9,4.4c0.3,1.5,1.8,2.6,3.3,2.5h17.4v-15.8
		l-5.2,7.7c-0.7,1-2,1.2-2.9,0.6s-1.2-2-0.6-2.9l0,0l9.1-13.4c0.7-1,2-1.2,2.9-0.5c0.6,0.4,0.9,1,0.9,1.7v24.8
		c0,1.2-0.9,2.1-2.1,2.1h-19.5c-3.5,0.1-6.7-2.3-7.4-5.7c-0.6-2.6,0-5.4,1.5-7.7l23.3-35.7c1.6-2.7,4.5-4.4,7.6-4.4h0.3
		c4.1,0.1,7.3,3.5,7.2,7.6c0,0.1,0,0.1,0,0.2v31.2h2.1c1.9,0,3.8,0.7,5.2,2.1l0.2,0.2c1.2,1.4,1.9,3.1,1.9,4.9
		c0,4.1-3.4,7.3-7.4,7.3c0,0,0,0,0,0h-1.9v12.5C768.7,321.3,767.7,322.3,766.5,322.3C766.6,322.3,766.5,322.3,766.5,322.3z"/>
	<g>
		<g transform="translate(709 235.01)">
			
				<image style="overflow:visible;enable-background:new    ;" width="89" height="107" id="image-45" xlink:href="52C3001.png"  transform="matrix(1 0 0 1 709 235.0099)">
			</image>
		</g>
	</g>
	<g>
		<g transform="translate(709 235.02)">
			
				<image style="overflow:visible;enable-background:new    ;" width="89" height="107" xlink:href="52C3002.png"  transform="matrix(1 0 0 1 709 235.0199)">
			</image>
		</g>
	</g>
	<path class="st5" d="M766.5,321.5c-0.7,0-1.3-0.6-1.3-1.3v-14.6c0-0.7,0.6-1.3,1.3-1.3h4c2.2,0,4-1.7,4-3.9c0,0,0,0,0,0
		c0-1-0.4-1.9-1-2.6l-0.1-0.1c-0.7-0.7-1.7-1.1-2.7-1.1h-4.2c-0.7,0-1.3-0.6-1.3-1.3V262c0.2-2.2-1.5-4.1-3.7-4.3
		c-0.1,0-0.1,0-0.2,0h-0.2c-2,0-3.8,1.1-4.8,2.8l-23.2,35.7c-1,1.5-1.4,3.3-1,5c0.4,1.9,2.2,3.2,4.1,3.1h18.2v-19.2l-6.7,9.9
		c-0.4,0.6-1.2,0.8-1.8,0.4c-0.6-0.4-0.8-1.2-0.4-1.8l9.1-13.4c0.3-0.5,0.9-0.7,1.5-0.5c0.6,0.2,0.9,0.7,0.9,1.3v24.8
		c0,0.7-0.6,1.3-1.3,1.3h-19.5c-3.2,0.1-6-2-6.7-5.1c-0.5-2.4,0-4.9,1.4-7l23.3-35.7c1.5-2.5,4.1-4,7-4h0.3c3.6,0.1,6.5,3.2,6.4,6.8
		c0,0.1,0,0.1,0,0.2v32h2.9c1.7,0,3.4,0.7,4.6,1.9l0.2,0.2c1.1,1.2,1.6,2.8,1.6,4.4c0,3.6-3,6.5-6.6,6.5c0,0,0,0,0,0h-2.7v13.3
		C767.8,321,767.2,321.5,766.5,321.5z"/>
	<path class="st5" d="M766.5,320.7c-0.3,0-0.5-0.2-0.5-0.5l0,0v-14.6c0-0.3,0.2-0.5,0.5-0.5c0,0,0,0,0,0h4c2.6,0,4.8-2,4.8-4.6
		c0,0,0,0,0,0c0-1.1-0.4-2.3-1.2-3.1l-0.1-0.1c-0.9-0.9-2.1-1.4-3.3-1.3h-4.2c-0.3,0-0.5-0.2-0.5-0.5c0,0,0,0,0,0V262
		c0.2-2.6-1.7-4.9-4.3-5.1c-0.1,0-0.2,0-0.3,0h-0.2c-2.3,0-4.3,1.2-5.5,3.2l-23.3,35.7c-1.1,1.6-1.5,3.7-1.1,5.6
		c0.5,2.3,2.6,3.8,4.9,3.7h19v-22.5l-8.1,12c-0.2,0.2-0.5,0.3-0.7,0.1c-0.2-0.2-0.2-0.4-0.1-0.7l9.1-13.4c0.1-0.3,0.4-0.4,0.6-0.4
		c0.3,0.1,0.4,0.4,0.4,0.6l0,0v24.8c0,0.3-0.2,0.5-0.5,0.5l0,0h-19.6c-2.8,0.1-5.3-1.8-5.9-4.5c-0.5-2.2,0-4.6,1.3-6.4l23.3-35.7
		c1.3-2.2,3.7-3.6,6.3-3.7h0.3c3.2,0.1,5.7,2.8,5.6,6c0,0.1,0,0.1,0,0.2v32.8h3.7c1.5,0,2.9,0.6,4,1.6l0.2,0.2
		c0.9,1.1,1.4,2.4,1.4,3.8c0,3.2-2.7,5.7-5.9,5.7H767v14.1C767,320.5,766.8,320.7,766.5,320.7z"/>
</g>
<path class="st3" d="M830.8,186.5H973c10.2,0,18.5,8.3,18.5,18.5v327.3c0,10.2-8.3,18.5-18.5,18.5H830.8c-10.2,0-18.5-8.3-18.5-18.5
	V205C812.3,194.8,820.6,186.5,830.8,186.5z"/>
<path class="st7" d="M887.1,197.4h20c1.4,0,2.5,1.1,2.5,2.5v0c0,1.4-1.1,2.5-2.5,2.5h-20c-1.4,0-2.5-1.1-2.5-2.5v0
	C884.6,198.5,885.7,197.4,887.1,197.4z"/>
<circle class="st7" cx="916.3" cy="199.9" r="2.9"/>
<path class="st4" d="M966.2,196h-20.5v2.5c0,6.5-5.2,11.7-11.7,11.7h-65.5c-6.5,0-11.7-5.3-11.7-11.7V196h-19.3
	c-7.9,0-14.2,6.4-14.2,14.2v316.9c0,7.9,6.4,14.2,14.2,14.2h128.7c7.9,0,14.2-6.4,14.2-14.2V210.2C980.5,202.4,974.1,196,966.2,196z
	"/>
<g>
	<path class="st5" d="M904.8,352.9c-2,0.1-4-0.5-5.6-1.7c-1.6-1.4-2.6-3.3-2.6-5.5c-0.1-0.7,0.2-1.5,0.7-2c0.4-0.4,1-0.7,1.5-0.7
		h0.2c0.6,0,1.2,0.2,1.6,0.6c0.5,0.5,0.8,1.1,0.8,1.7c0.1,1.4,0.5,1.8,0.8,2.1c0.8,0.5,1.6,0.7,2.5,0.6c0.8,0,1.6-0.2,2.3-0.6
		c0.8-0.5,0.8-0.9,0.8-1.2s0-0.2,0-0.3c0-0.4,0.3-0.7,0.6-0.8c0.4,0,0.7,0.3,0.7,0.7c0,0,0,0,0,0c0,0.1,0,0.3,0,0.4
		c0,1-0.6,1.9-1.5,2.4c-0.9,0.5-1.9,0.8-3,0.8c-1.2,0.1-2.4-0.2-3.3-0.9c-0.9-0.8-1.4-1.9-1.4-3.1c0-0.3-0.2-0.6-0.4-0.8
		c-0.2-0.2-0.4-0.3-0.7-0.3h-0.1c-0.3,0-0.5,0.1-0.7,0.3c-0.2,0.2-0.3,0.6-0.3,0.9c0,1.7,0.8,3.4,2.1,4.5c2.9,1.8,6.5,1.8,9.4,0
		c1.3-0.9,2.1-2.4,2-4c0-1.4-0.5-2.7-1.4-3.8c-0.6-0.7-1.8-1.9-6.3-1.6c-2.5,0.2-4.4-0.3-5.6-1.5c-0.7-0.7-1.2-1.7-1.2-2.7
		c-0.1-1.9,0.8-3.6,2.3-4.8c1.6-1.1,3.5-1.6,5.5-1.5c2-0.1,4,0.6,5.5,2c0.7,0.7,1.3,1.6,1.6,2.6c0.1,0.4-0.1,0.7-0.4,0.9
		c-0.4,0.1-0.7-0.1-0.9-0.4c0,0,0,0,0,0c-0.2-0.8-0.7-1.5-1.2-2.1c-1.2-1.1-2.9-1.7-4.5-1.6c-1.6-0.1-3.3,0.4-4.7,1.3
		c-1.1,0.9-1.8,2.2-1.7,3.6c0.1,0.6,0.3,1.2,0.8,1.7c0.9,0.9,2.5,1.2,4.6,1.1c4.5-0.3,6.3,0.9,7.3,2.1c1.1,1.3,1.7,3,1.7,4.7
		c0.1,2-0.9,4-2.6,5.1C908.6,352.4,906.7,353,904.8,352.9z"/>
	<g>
		<g transform="translate(890 323.01)">
			
				<image style="overflow:visible;enable-background:new    ;" width="30" height="37" id="image-46" xlink:href="52C3003.png"  transform="matrix(1 0 0 1 890 323.0099)">
			</image>
		</g>
	</g>
	<g>
		<g transform="translate(890 323.02)">
			
				<image style="overflow:visible;enable-background:new    ;" width="30" height="37" xlink:href="52C3004.png"  transform="matrix(1 0 0 1 890 323.0199)">
			</image>
		</g>
	</g>
	<path class="st5" d="M904.8,352.6c-2,0.1-3.9-0.5-5.5-1.6c-1.6-1.3-2.5-3.2-2.5-5.3c-0.1-0.7,0.1-1.3,0.6-1.8
		c0.4-0.4,0.8-0.6,1.4-0.6h0.2c0.5,0,1,0.2,1.4,0.5c0.4,0.4,0.7,1,0.8,1.6c0,0.9,0.3,1.7,0.9,2.3c0.8,0.5,1.7,0.7,2.7,0.6
		c0.8,0,1.7-0.2,2.4-0.6c0.8-0.5,1-1,1-1.4c0-0.1,0-0.2,0-0.4c0-0.2,0.1-0.4,0.4-0.5c0,0,0,0,0,0c0.2,0,0.4,0.2,0.5,0.4
		c0,0.1,0,0.3,0,0.4c0,0.9-0.5,1.8-1.4,2.2c-0.9,0.5-1.8,0.8-2.8,0.7c-1.1,0.1-2.2-0.2-3.2-0.8c-0.8-0.7-1.3-1.8-1.3-2.9
		c0-0.4-0.2-0.7-0.5-1c-0.2-0.2-0.5-0.3-0.8-0.3h-0.1c-0.3,0-0.6,0.2-0.8,0.4c-0.3,0.3-0.4,0.7-0.4,1.1c0,1.8,0.8,3.5,2.2,4.7
		c3,1.9,6.7,1.9,9.7,0c1.4-1,2.2-2.5,2.1-4.2c0-1.4-0.5-2.8-1.4-3.9c-0.7-0.7-1.9-2-6.5-1.7c-2.5,0.2-4.3-0.3-5.4-1.4
		c-0.7-0.6-1.1-1.5-1.1-2.5c-0.1-1.8,0.8-3.5,2.2-4.6c1.6-1,3.4-1.6,5.3-1.5c2-0.1,3.9,0.6,5.3,1.9c0.7,0.7,1.2,1.6,1.5,2.5
		c0.1,0.2,0,0.5-0.2,0.6c-0.2,0.1-0.5,0-0.6-0.2c0,0,0,0,0-0.1c-0.3-0.8-0.7-1.6-1.3-2.2c-1.3-1.2-3-1.8-4.7-1.7
		c-1.7-0.1-3.4,0.4-4.8,1.3c-1.2,0.9-1.9,2.3-1.8,3.9c0,0.7,0.4,1.4,0.9,1.8c1,0.9,2.5,1.3,4.8,1.2c4.4-0.3,6,0.8,7.2,2
		c1.1,1.3,1.6,2.9,1.7,4.5c0,2-0.9,3.8-2.5,4.9C908.6,352.2,906.7,352.7,904.8,352.6z"/>
	<path class="st5" d="M904.8,352.4c-1.9,0.1-3.8-0.4-5.3-1.5c-1.5-1.3-2.4-3.1-2.4-5.1c-0.1-0.6,0.1-1.2,0.5-1.6
		c0.3-0.3,0.8-0.5,1.2-0.6h0.2c0.5,0,0.9,0.2,1.2,0.5c0.4,0.4,0.6,0.9,0.7,1.4c0,0.9,0.3,1.8,1,2.4c0.8,0.5,1.8,0.8,2.8,0.7
		c0.9,0,1.8-0.2,2.5-0.7c0.7-0.3,1.1-0.9,1.1-1.6c0-0.1,0-0.3,0-0.4c0-0.1,0.1-0.2,0.2-0.2c0.1,0,0.2,0,0.2,0.1c0,0,0,0,0,0
		c0,0.1,0,0.3,0,0.4c0,0.8-0.5,1.6-1.3,1.9c-0.8,0.5-1.8,0.7-2.7,0.7c-1.1,0.1-2.1-0.2-3-0.8c-0.8-0.7-1.2-1.7-1.2-2.7
		c0-0.4-0.2-0.9-0.6-1.2c-0.3-0.2-0.6-0.4-1-0.4h-0.1c-0.4,0-0.7,0.2-1,0.5c-0.3,0.3-0.5,0.8-0.4,1.3c0,1.9,0.9,3.6,2.3,4.9
		c3,2,7,2,10,0c1.4-1,2.3-2.7,2.2-4.4c0-1.5-0.5-3-1.5-4.1c-1-1.1-2.5-2-6.7-1.8c-2.4,0.2-4.1-0.3-5.2-1.4c-0.6-0.6-1-1.4-1-2.3
		c-0.1-1.7,0.7-3.3,2.1-4.4c1.5-1,3.3-1.5,5.2-1.4c1.9-0.1,3.7,0.5,5.1,1.8c0.7,0.7,1.2,1.5,1.5,2.4c0,0.1,0,0.2-0.1,0.2
		c-0.1,0-0.2,0-0.2-0.1c0,0,0,0,0,0c-0.3-0.9-0.8-1.6-1.4-2.3c-1.3-1.2-3.1-1.8-4.9-1.7c-1.8-0.1-3.5,0.4-5,1.4
		c-1.3,1-2,2.5-1.9,4.1c0.1,0.8,0.4,1.5,1,2c1,1,2.7,1.4,5,1.3c4.3-0.3,5.9,0.8,7,1.9c1,1.2,1.6,2.8,1.6,4.4c0,1.9-0.8,3.6-2.4,4.7
		C908.5,351.9,906.7,352.4,904.8,352.4z"/>
	<path class="st5" d="M928.8,353.9c-4,0.1-7.7-1.6-10.3-4.6c-2.5-2.9-3.8-6.9-3.8-11.8s1.3-8.7,3.8-11.8c2.5-3.1,6.3-4.8,10.3-4.7
		c3.3-0.1,6.5,0.9,9,3c1.7,1.5,2.9,3.4,3.5,5.6c0.2,0.5-0.1,1.1-0.7,1.3c0,0,0,0,0,0c-0.5,0.2-1.1-0.1-1.2-0.7c0,0,0,0,0,0
		c-0.5-1.8-1.5-3.4-2.9-4.7c-2.2-1.7-4.9-2.6-7.7-2.5c-3.4-0.1-6.6,1.4-8.7,4c-2.2,2.6-3.4,6.1-3.4,10.4s1.1,7.9,3.3,10.5
		c4.3,4.7,11.4,5.2,16.4,1.3c1.7-1.6,2.9-3.7,3.3-6c0.1-0.5,0.1-1-0.2-1.4c-0.2-0.4-0.6-0.6-1-0.7c-0.4-0.1-0.9-0.1-1.3,0.2
		c-0.4,0.2-0.7,0.6-0.7,1.1c-0.3,2-1.3,3.8-2.8,5.1c-3.6,2.3-8.3,1.7-11.2-1.4c-1.7-2-2.6-4.9-2.6-8.6c0-0.6,0.4-1,1-1s1,0.4,1,1
		c0,3.3,0.7,5.7,2.1,7.3c1.2,1.4,3,2.1,4.8,2c1.3,0.1,2.6-0.3,3.7-1c1.1-1,1.9-2.4,2.1-3.9c0.2-1,0.8-1.9,1.7-2.5
		c0.8-0.5,1.8-0.6,2.7-0.4c1,0.2,1.8,0.8,2.3,1.6c0.6,0.9,0.7,2,0.5,3c-0.6,2.7-2,5.1-4,7C935.3,352.9,932.1,354,928.8,353.9z"/>
	<g>
		<g transform="translate(905 311.01)">
			
				<image style="overflow:visible;enable-background:new    ;" width="47" height="53" id="image-47" xlink:href="52C3000.png"  transform="matrix(1 0 0 1 905 311.0099)">
			</image>
		</g>
	</g>
	<g>
		<g transform="translate(905 311.02)">
			
				<image style="overflow:visible;enable-background:new    ;" width="47" height="53" xlink:href="52C3075.png"  transform="matrix(1 0 0 1 905 311.0199)">
			</image>
		</g>
	</g>
	<path class="st5" d="M928.8,353.5c-3.8,0.1-7.5-1.5-10-4.5c-2.5-2.9-3.8-6.8-3.8-11.6s1.3-8.6,3.8-11.5c2.4-3,6.1-4.7,10-4.5
		c3.2-0.1,6.3,0.9,8.8,2.9c1.6,1.4,2.8,3.3,3.4,5.5c0.1,0.3-0.1,0.7-0.4,0.8c-0.3,0.1-0.7-0.1-0.8-0.4c0,0,0,0,0,0
		c-0.5-1.9-1.6-3.6-3-4.9c-2.2-1.8-5.1-2.7-7.9-2.5c-3.5-0.1-6.8,1.4-9,4.1c-2.3,2.7-3.5,6.3-3.5,10.7s1.2,8.1,3.5,10.7
		c4.4,4.8,11.8,5.4,16.9,1.3c1.8-1.7,3-3.8,3.5-6.2c0.2-0.6,0.1-1.2-0.3-1.7c-0.3-0.5-0.8-0.8-1.3-0.9c-0.5-0.1-1.1-0.1-1.5,0.2
		c-0.5,0.3-0.8,0.8-0.9,1.4c-0.3,1.9-1.3,3.6-2.7,4.9c-1.4,0.9-3,1.4-4.7,1.3c-2.3,0.1-4.5-0.9-6-2.6c-1.6-1.9-2.5-4.8-2.5-8.4
		c0-0.3,0.3-0.6,0.6-0.6s0.6,0.3,0.6,0.6c0,3.3,0.7,5.9,2.2,7.6c1.3,1.5,3.1,2.3,5.1,2.2c1.4,0.1,2.7-0.3,3.9-1.1
		c1.2-1.1,2-2.5,2.2-4.1c0.2-0.9,0.7-1.7,1.5-2.2c0.7-0.4,1.6-0.5,2.4-0.3c0.9,0.2,1.6,0.7,2.1,1.4c0.5,0.8,0.7,1.8,0.4,2.7
		c-0.6,2.6-1.9,5-3.8,6.8C935.2,352.5,932,353.6,928.8,353.5z"/>
	<path class="st5" d="M928.8,353.1c-3.7,0.1-7.3-1.5-9.7-4.3c-2.4-2.8-3.7-6.6-3.7-11.3s1.2-8.4,3.7-11.3c2.4-2.9,5.9-4.5,9.7-4.4
		c3.1-0.1,6.1,0.8,8.5,2.8c1.6,1.4,2.7,3.2,3.3,5.3c0,0.1,0,0.3-0.2,0.3s-0.3,0-0.3-0.2l0,0c-0.5-1.9-1.6-3.7-3.1-5
		c-2.3-1.8-5.2-2.8-8.2-2.6c-3.6-0.1-7,1.5-9.3,4.2c-2.3,2.8-3.5,6.4-3.5,10.9s1.2,8.3,3.5,11c4.6,5,12.2,5.6,17.5,1.3
		c1.8-1.7,3-3.9,3.6-6.4c0.2-0.7,0.1-1.4-0.3-2c-0.3-0.5-0.9-0.9-1.5-1c-0.6-0.2-1.2-0.1-1.8,0.2c-0.6,0.3-1,0.9-1.1,1.6
		c-0.3,1.8-1.2,3.5-2.6,4.7c-1.3,0.9-2.9,1.3-4.4,1.2c-2.2,0.1-4.3-0.8-5.7-2.5c-1.6-1.9-2.4-4.6-2.4-8.2c0-0.1,0.1-0.3,0.3-0.3
		s0.3,0.1,0.3,0.3c0,3.4,0.8,6.1,2.3,7.8c1.3,1.6,3.3,2.4,5.4,2.3c1.5,0.1,2.9-0.3,4.1-1.1c1.3-1.1,2.1-2.7,2.4-4.4
		c0.1-0.8,0.6-1.6,1.4-2c0.6-0.4,1.4-0.5,2.1-0.3c0.8,0.2,1.4,0.6,1.8,1.3c0.5,0.7,0.6,1.6,0.4,2.4c-0.5,2.5-1.8,4.9-3.7,6.6
		C935,352.2,931.9,353.3,928.8,353.1z"/>
	<path class="st5" d="M878.9,353.3h-5.2c-1.7,0.1-3.4-0.7-4.5-2c-1-1.1-1.5-2.5-1.5-4v-24.7c0-0.6,0.4-1,1-1s1,0.4,1,1v24.6
		c0,1,0.3,2,1,2.7c0.8,0.8,1.9,1.3,3,1.2h5.2c3.7,0.2,7.2-1.3,9.7-4.1c4.3-5.7,4.3-13.6,0-19.3c-2.4-2.8-6-4.3-9.7-4.1h-3
		c-0.3,0-0.7,0.1-0.9,0.3c-0.3,0.3-0.4,0.7-0.3,1.2v22.5c0,0.6-0.4,1-1,1s-1-0.4-1-1v-22.5c-0.1-1,0.3-2,1-2.7
		c0.7-0.6,1.5-0.8,2.4-0.8h2.9c4.3-0.2,8.4,1.6,11.2,4.9c5,6.4,5,15.5,0,21.9C887.3,351.6,883.6,353.3,878.9,353.3z"/>
	<g>
		<g transform="translate(858 312.01)">
			
				<image style="overflow:visible;enable-background:new    ;" width="45" height="51" id="image-48" xlink:href="52C3076.png"  transform="matrix(1 0 0 1 858 312.0099)">
			</image>
		</g>
	</g>
	<g>
		<g transform="translate(858 312.02)">
			
				<image style="overflow:visible;enable-background:new    ;" width="45" height="51" xlink:href="52C3074.png"  transform="matrix(1 0 0 1 858 312.0199)">
			</image>
		</g>
	</g>
	<path class="st5" d="M878.9,352.9h-5.2c-1.6,0.1-3.2-0.6-4.2-1.8c-0.9-1.1-1.4-2.4-1.3-3.8v-24.6c0-0.3,0.3-0.6,0.6-0.6
		c0.3,0,0.6,0.3,0.6,0.6l0,0v24.6c0,1.1,0.3,2.1,1,3c0.8,0.9,2,1.4,3.3,1.4h5.2c3.8,0.2,7.5-1.4,9.9-4.3c4.5-5.8,4.5-13.9,0-19.8
		c-2.5-2.9-6.2-4.5-10-4.3h-3c-0.4,0-0.8,0.1-1.2,0.4c-0.4,0.4-0.5,0.9-0.5,1.5v22.5c0,0.3-0.3,0.6-0.6,0.6c-0.3,0-0.6-0.3-0.6-0.6
		l0,0v-22.5c-0.1-0.9,0.3-1.8,0.9-2.4c0.6-0.5,1.3-0.7,2.1-0.7h2.9c4.2-0.2,8.2,1.6,10.9,4.7c4.9,6.3,4.9,15.1,0,21.4
		C887,351.3,883,353.1,878.9,352.9z"/>
	<path class="st5" d="M878.9,352.5h-5.2c-1.5,0.1-2.9-0.6-3.9-1.7c-0.8-1-1.3-2.2-1.3-3.5v-24.6c0-0.1,0.1-0.3,0.3-0.3
		c0.1,0,0.3,0.1,0.3,0.3v24.6c0,1.2,0.4,2.3,1.1,3.2c0.9,1,2.2,1.6,3.5,1.5h5.2c3.9,0.2,7.7-1.4,10.2-4.4c4.6-6,4.6-14.3,0-20.3
		c-2.6-3-6.3-4.6-10.2-4.4h-3c-0.5,0-1,0.1-1.4,0.5c-0.4,0.5-0.7,1.1-0.6,1.7v22.5c0,0.1-0.1,0.3-0.3,0.3c-0.1,0-0.3-0.1-0.3-0.3
		v-22.5c-0.1-0.8,0.2-1.6,0.8-2.1c0.5-0.4,1.1-0.6,1.8-0.6h3c4.1-0.2,8,1.5,10.6,4.6c4.8,6.2,4.8,14.8,0,20.9
		C886.8,351,882.9,352.7,878.9,352.5z"/>
	<path class="st5" d="M840.2,317.1c-2.8,0.1-5.4-1-7.3-3c-1.6-1.7-2.4-4-2.4-6.4c-0.1-2,1.5-3.6,3.4-3.7c0,0,0.1,0,0.1,0h0.2
		c0.8,0,1.6,0.3,2.2,0.7c0.9,0.6,1.4,1.7,1.3,2.8c0,0.7,0.2,1.4,0.6,1.9c0.5,0.5,1.2,0.7,1.8,0.6c0.7,0.1,1.3-0.2,1.8-0.6
		c0.5-0.7,0.7-1.5,0.6-2.3v-21.9c0-0.6,0.4-1,1-1l0,0c0.6,0,1,0.4,1,1v21.9c0.1,1.3-0.3,2.6-1.1,3.6c-0.8,0.9-2.1,1.4-3.3,1.3
		c-1.3,0.1-2.5-0.4-3.4-1.4c-0.8-0.9-1.1-2.1-1.1-3.3c0-0.4-0.2-0.9-0.5-1.1c-0.3-0.2-0.6-0.4-1-0.4h-0.2c-0.9,0-1.6,0.7-1.6,1.5
		c0,0.1,0,0.1,0,0.2c0,1.8,0.6,3.6,1.9,5c1.5,1.6,3.6,2.5,5.8,2.4c2.2,0.1,4.3-0.8,5.7-2.4c1.3-1.4,2-3.3,2-5.3v-22.1
		c0-0.6,0.4-1,1-1s1,0.4,1,1v22.1c0.1,2.4-0.8,4.8-2.5,6.6C845.6,316.1,843,317.2,840.2,317.1z"/>
	<g>
		<g transform="translate(821 275.01)">
			
				<image style="overflow:visible;enable-background:new    ;" width="39" height="52" id="image-49" xlink:href="52C306C.png"  transform="matrix(1 0 0 1 821 275.0099)">
			</image>
		</g>
	</g>
	<g>
		<g transform="translate(821 275.02)">
			
				<image style="overflow:visible;enable-background:new    ;" width="39" height="52" xlink:href="52C306D.png"  transform="matrix(1 0 0 1 821 275.0199)">
			</image>
		</g>
	</g>
	<path class="st5" d="M840.2,316.7c-2.6,0.1-5.2-1-7-2.9c-1.5-1.7-2.3-3.9-2.3-6.1c-0.1-1.8,1.3-3.2,3-3.3c0,0,0.1,0,0.1,0h0.2
		c0.7,0,1.4,0.2,2,0.7c0.8,0.6,1.2,1.5,1.2,2.5c-0.1,0.8,0.2,1.6,0.7,2.2c0.6,0.6,1.3,0.9,2.1,0.8c0.8,0.1,1.5-0.2,2.1-0.8
		c0.5-0.7,0.8-1.6,0.7-2.5v-21.9c0-0.4,0.3-0.6,0.6-0.6l0,0c0.3,0,0.6,0.3,0.6,0.6v21.9c0.1,1.2-0.3,2.4-1,3.4
		c-0.8,0.8-1.9,1.3-3,1.2c-1.2,0.1-2.3-0.4-3.1-1.2c-0.7-0.8-1-1.9-1-3c0-0.6-0.2-1.1-0.7-1.4c-0.3-0.3-0.8-0.4-1.2-0.4h-0.1
		c-0.5,0-1,0.2-1.4,0.6c-0.4,0.4-0.6,0.9-0.5,1.5c0,1.9,0.7,3.8,2,5.3c1.6,1.7,3.8,2.6,6.1,2.5c2.3,0.1,4.5-0.8,6-2.5
		c1.3-1.5,2.1-3.5,2-5.5v-22.1c0-0.3,0.3-0.6,0.6-0.6c0,0,0,0,0,0c0.4,0,0.6,0.3,0.6,0.6v0v22.1c0.1,2.4-0.8,4.6-2.4,6.4
		C845.5,315.8,842.9,316.9,840.2,316.7z"/>
	<path class="st5" d="M840.2,316.4c-2.5,0.1-5-0.9-6.7-2.8c-1.5-1.6-2.2-3.7-2.2-5.9c-0.1-1.5,1.1-2.9,2.7-2.9c0,0,0.1,0,0.1,0h0.2
		c0.6,0,1.2,0.2,1.7,0.6c0.7,0.5,1,1.3,1,2.1c-0.1,0.9,0.2,1.7,0.8,2.4c0.6,0.7,1.5,1,2.4,0.9c0.9,0.1,1.7-0.3,2.3-0.9
		c0.6-0.8,0.9-1.8,0.8-2.8v-21.9c0-0.1,0.1-0.3,0.3-0.3l0,0c0.1,0,0.3,0.1,0.3,0.3v21.9c0.1,1.1-0.3,2.2-0.9,3.1
		c-0.7,0.8-1.7,1.2-2.7,1.1c-1,0.1-2.1-0.3-2.8-1.1c-0.6-0.8-0.9-1.8-0.9-2.8c0-0.7-0.3-1.3-0.8-1.7c-0.4-0.4-1-0.5-1.6-0.5
		c-1.3,0-2.3,1-2.3,2.3c0,0.1,0,0.1,0,0.2c-0.1,2,0.7,4,2,5.5c1.6,1.8,4,2.7,6.3,2.6c2.4,0.1,4.7-0.9,6.3-2.6
		c1.4-1.6,2.2-3.7,2.1-5.8v-22.1c0-0.1,0.1-0.3,0.3-0.3c0.1,0,0.3,0.1,0.3,0.3c0,0,0,0,0,0v22.1c0.1,2.3-0.8,4.5-2.3,6.1
		C845.1,315.4,842.7,316.5,840.2,316.4z"/>
	<path class="st5" d="M903.5,316.5h-14c-1.7,0.1-3.4-0.7-4.5-2c-1-1.1-1.5-2.5-1.4-4V288c0-1,0.4-2,1.1-2.7c0.7-0.6,1.6-1,2.6-1
		c2,0,3.6,1.6,3.6,3.6c0,0,0,0,0,0.1v22.4c0,0.6-0.4,1-1,1s-1-0.4-1-1V288c0-0.5-0.2-0.9-0.5-1.3c-0.3-0.3-0.7-0.4-1.1-0.4
		c-0.4,0-0.9,0.2-1.2,0.5c-0.3,0.3-0.5,0.8-0.4,1.2v22.5c0,1,0.3,2,1,2.7c0.8,0.8,1.9,1.3,3,1.2h14c0.6,0,1,0.4,1,1s-0.4,1-1,1
		L903.5,316.5z"/>
	<g>
		<g transform="translate(874 275.01)">
			
				<image style="overflow:visible;enable-background:new    ;" width="40" height="51" id="image-50" xlink:href="52C306A.png"  transform="matrix(1 0 0 1 874 275.0099)">
			</image>
		</g>
	</g>
	<g>
		<g transform="translate(874 275.02)">
			
				<image style="overflow:visible;enable-background:new    ;" width="40" height="51" xlink:href="52C306B.png"  transform="matrix(1 0 0 1 874 275.0199)">
			</image>
		</g>
	</g>
	<path class="st5" d="M903.5,316.1h-14c-1.6,0.1-3.1-0.6-4.2-1.8c-0.9-1.1-1.4-2.4-1.3-3.8V288c-0.1-1.8,1.3-3.3,3.1-3.3
		c0.1,0,0.1,0,0.2,0c0.8,0,1.6,0.3,2.2,0.8c0.7,0.6,1.1,1.5,1.1,2.5v22.4c0,0.3-0.3,0.6-0.6,0.6c-0.3,0-0.6-0.3-0.6-0.6l0,0V288
		c0-0.6-0.2-1.2-0.7-1.5c-0.4-0.3-0.8-0.5-1.3-0.5c-1.1,0-2,0.8-2,1.8c0,0.1,0,0.2,0,0.2v22.5c0,1.1,0.3,2.1,1,3
		c0.8,0.9,2,1.4,3.3,1.4h14c0.3,0,0.6,0.3,0.6,0.6C904,315.8,903.8,316.1,903.5,316.1z"/>
	<path class="st5" d="M903.5,315.8h-14c-1.5,0.1-2.9-0.6-3.9-1.7c-0.8-1-1.3-2.2-1.3-3.5V288c-0.1-1.6,1.1-2.9,2.7-2.9
		c0.1,0,0.1,0,0.2,0c0.7,0,1.4,0.3,1.9,0.7c0.6,0.6,1,1.4,1,2.2v22.4c0,0.1-0.1,0.3-0.3,0.3c-0.1,0-0.3-0.1-0.3-0.3V288
		c0-1.3-1-2.4-2.4-2.4c-0.6,0-1.2,0.2-1.6,0.6c-0.5,0.5-0.7,1.1-0.7,1.8v22.5c0,1.2,0.4,2.3,1.1,3.2c0.9,1,2.2,1.6,3.5,1.5h14
		c0.1,0,0.2,0.2,0.2,0.3C903.7,315.7,903.7,315.7,903.5,315.8L903.5,315.8z"/>
	<path class="st5" d="M951.4,315.7h-0.2c-0.9-0.1-1.8-0.4-2.4-1.1c-0.7-0.7-1.1-1.7-1.1-2.7v-25.1c-0.1-1.9,1.3-3.6,3.2-3.9
		c0.2,0,0.5,0,0.7,0c1.4,0,2.7,0.7,3.5,1.9c0,0.1,0.1,0.1,0.1,0.2l11.3,28c0.4,0.6,1.2,0.8,1.8,0.6c0.9-0.2,1.5-1.1,1.4-2v-27.7
		c0-0.6,0.4-1,1-1s1,0.4,1,1v27.8c0.1,1.8-1.1,3.5-2.9,3.9c-0.4,0.1-0.7,0.2-1.1,0.2c-1.2,0-2.4-0.7-3-1.7c0,0-0.1-0.1-0.1-0.1
		l-11.3-28c-0.4-0.6-1-0.9-1.7-0.9h-0.4c-0.9,0.2-1.6,1-1.5,1.9v25.1c0,0.5,0.2,1,0.5,1.3c0.3,0.3,0.7,0.5,1.1,0.5h0.1
		c0.4,0,0.8-0.2,1.1-0.5c0.3-0.3,0.5-0.8,0.5-1.3v-17.1c0-0.6,0.4-1,1-1s1,0.4,1,1v17.1c0,1-0.4,2-1.1,2.8
		C953.3,315.3,952.4,315.7,951.4,315.7z"/>
	<g>
		<g transform="translate(938 273.01)">
			
				<image style="overflow:visible;enable-background:new    ;" width="44" height="53" id="image-51" xlink:href="52C3050.png"  transform="matrix(1 0 0 1 938 273.0099)">
			</image>
		</g>
	</g>
	<g>
		<g transform="translate(938 273.02)">
			
				<image style="overflow:visible;enable-background:new    ;" width="44" height="53" xlink:href="52C3052.png"  transform="matrix(1 0 0 1 938 273.0199)">
			</image>
		</g>
	</g>
	<path class="st5" d="M951.4,315.3h-0.1c-0.8-0.1-1.6-0.4-2.2-1c-0.6-0.7-1-1.5-1-2.4v-25.1c-0.1-1.7,1.1-3.3,2.9-3.5
		c0.2,0,0.4,0,0.6,0c1.3,0,2.5,0.6,3.2,1.8c0,0,0,0.1,0,0.1l11.3,28.1c0.3,0.6,0.9,0.9,1.6,0.9c0.2,0,0.5,0,0.7-0.1
		c1-0.3,1.7-1.2,1.6-2.3v-27.8c0-0.3,0.3-0.6,0.6-0.6l0,0c0.3,0,0.6,0.3,0.6,0.6v27.8c0.1,1.6-1,3.1-2.6,3.5c-0.3,0.1-0.7,0.1-1,0.1
		c-1.1,0-2.2-0.6-2.7-1.5c0,0,0-0.1,0-0.1l-11.3-28.1c-0.4-0.7-1.2-1.1-2.1-1.1c-0.1,0-0.3,0-0.5,0c-1.1,0.2-1.9,1.2-1.8,2.3v25.1
		c0,0.6,0.2,1.1,0.6,1.6c0.3,0.4,0.8,0.6,1.3,0.6h0.1c0.5,0,1-0.2,1.4-0.6c0.4-0.4,0.6-1,0.6-1.6v-17.1c0-0.4,0.3-0.6,0.6-0.6l0,0
		c0.3,0,0.6,0.3,0.6,0.6v17.1c0,0.9-0.3,1.8-1,2.5C953.1,314.9,952.3,315.3,951.4,315.3z"/>
	<path class="st5" d="M951.4,314.9h-0.1c-0.7,0-1.4-0.4-1.9-0.9c-0.6-0.6-0.9-1.4-0.8-2.2v-25.1c-0.1-1.6,1-2.9,2.5-3.2
		c0.2,0,0.4,0,0.6,0c1.2,0,2.2,0.6,2.8,1.6l11.3,28.2c0.4,0.7,1.1,1.1,1.9,1.1c0.3,0,0.5,0,0.8-0.1c1.2-0.3,2-1.5,1.9-2.7v-27.8
		c0-0.1,0.1-0.3,0.3-0.3c0.1,0,0.3,0.1,0.3,0.3v27.8c0.1,1.5-0.8,2.8-2.3,3.2c-0.3,0.1-0.6,0.1-0.9,0.1c-1,0-1.9-0.5-2.4-1.4
		l-11.3-28.2c-0.5-0.8-1.4-1.3-2.4-1.3c-0.2,0-0.3,0-0.5,0c-1.3,0.2-2.2,1.4-2.1,2.7v25.1c0,0.7,0.2,1.3,0.7,1.8
		c0.4,0.4,1,0.7,1.6,0.7h0.1c0.6,0,1.2-0.2,1.7-0.7c0.5-0.5,0.7-1.2,0.7-1.9v-17.1c0-0.1,0.1-0.3,0.3-0.3l0,0c0.1,0,0.3,0.1,0.3,0.3
		v17.1c0,0.8-0.3,1.6-0.9,2.2C952.9,314.6,952.2,314.9,951.4,314.9z"/>
	<path class="st5" d="M866.8,316.4c-3.6,0.2-7-1.3-9.3-4c-2-2.3-3-5.3-2.9-8.4v-16.8c0-1,0.4-1.9,1.1-2.6c0.7-0.7,1.6-1,2.6-1
		c0.8,0,1.6,0.3,2.3,0.8l0.1,0.1c0.8,0.7,1.2,1.7,1.2,2.8v16.8c-0.1,1.4,0.3,2.7,1.2,3.8c1,1.1,2.4,1.7,3.8,1.5c0.6,0,1,0.4,1,1
		s-0.4,1-1,1c-2,0.1-4-0.7-5.4-2.3c-1.1-1.4-1.7-3.2-1.6-5v-16.8c0-0.5-0.2-0.9-0.5-1.3l-0.1,0c-0.3-0.2-0.6-0.3-1-0.3
		c-0.4,0-0.9,0.2-1.2,0.5c-0.3,0.3-0.4,0.7-0.4,1.2V304c-0.1,2.6,0.8,5.1,2.4,7.1c4.2,4.3,11,4.4,15.3,0.2c0.1-0.1,0.1-0.1,0.2-0.2
		c1.6-2,2.5-4.5,2.4-7.1v-19.4c0-0.6,0.4-1,1-1s1,0.4,1,1V304c0.1,3.1-1,6-2.9,8.4C873.8,315.1,870.4,316.6,866.8,316.4z"/>
	<g>
		<g transform="translate(845 274.01)">
			
				<image style="overflow:visible;enable-background:new    ;" width="44" height="52" id="image-52" xlink:href="52C3056.png"  transform="matrix(1 0 0 1 845 274.0099)">
			</image>
		</g>
	</g>
	<g>
		<g transform="translate(845 274.02)">
			
				<image style="overflow:visible;enable-background:new    ;" width="44" height="52" xlink:href="52C304D.png"  transform="matrix(1 0 0 1 845 274.0199)">
			</image>
		</g>
	</g>
	<path class="st5" d="M866.8,316c-3.4,0.2-6.8-1.3-9-3.9c-1.9-2.3-2.9-5.2-2.8-8.1v-16.7c0-0.9,0.4-1.7,1-2.4
		c0.6-0.6,1.4-0.9,2.3-0.9c0.7,0,1.5,0.2,2.1,0.7l0.1,0.1c0.7,0.6,1.1,1.5,1.1,2.5v16.8c-0.1,1.4,0.4,2.9,1.3,4
		c1,1.2,2.5,1.8,4.1,1.7c0.3,0,0.6,0.3,0.6,0.6s-0.3,0.6-0.6,0.6c-1.9,0.1-3.8-0.7-5.1-2.1c-1.1-1.4-1.6-3.1-1.5-4.8v-16.8
		c0-0.6-0.2-1.1-0.6-1.5l-0.1-0.1c-0.4-0.3-0.8-0.4-1.3-0.4c-0.5,0-1,0.2-1.4,0.6c-0.4,0.4-0.6,0.9-0.5,1.5V304
		c-0.1,2.7,0.8,5.3,2.5,7.3c4.3,4.4,11.4,4.6,15.8,0.3c0.1-0.1,0.2-0.2,0.3-0.3c1.7-2.1,2.6-4.7,2.5-7.3v-19.4
		c0-0.3,0.2-0.6,0.5-0.6c0.4,0,0.6,0.3,0.6,0.6v0V304c0.1,3-0.9,5.9-2.8,8.1C873.6,314.7,870.3,316.2,866.8,316z"/>
	<path class="st5" d="M866.8,315.6c-3.3,0.2-6.6-1.2-8.8-3.7c-1.8-2.2-2.8-5-2.7-7.9v-16.8c0-0.8,0.3-1.5,0.8-2.1
		c0.5-0.5,1.3-0.8,2-0.8c0.7,0,1.3,0.2,1.8,0.6l0.1,0.1c0.6,0.6,1,1.4,1,2.2v16.8c-0.1,1.5,0.4,3,1.3,4.2c1.1,1.3,2.7,1.9,4.4,1.8
		c0.1,0,0.3,0.1,0.3,0.3s-0.1,0.3-0.3,0.3c-1.8,0.1-3.6-0.6-4.8-2c-1-1.3-1.5-2.9-1.5-4.6v-16.8c0-0.7-0.3-1.4-0.8-1.8l-0.1-0.1
		c-0.4-0.3-1-0.5-1.5-0.5c-0.6,0-1.2,0.2-1.7,0.7c-0.5,0.5-0.7,1.1-0.7,1.7V304c-0.1,2.7,0.8,5.4,2.6,7.5c4.4,4.6,11.8,4.7,16.4,0.3
		c0.1-0.1,0.2-0.2,0.3-0.3c1.8-2.1,2.7-4.8,2.6-7.6v-19.4c0-0.1,0.1-0.3,0.3-0.3c0.1,0,0.3,0.1,0.3,0.3c0,0,0,0,0,0V304
		c0.1,2.9-0.9,5.7-2.7,7.9C873.4,314.4,870.2,315.8,866.8,315.6z"/>
	<path class="st5" d="M912.8,315.8c-0.6,0-1-0.4-1-1V287c0.1-0.7-0.4-1.3-1.1-1.4c-0.1,0-0.2,0-0.3,0h-0.1c-0.7-0.1-1.4,0.5-1.4,1.2
		c0,0,0,0.1,0,0.1c0,1-0.4,2-1.1,2.7c-0.8,0.5-1.8,0.8-2.8,0.7c-0.4,0-0.7,0.1-1,0.4c-0.2,0.3-0.4,0.6-0.3,1c0,0.7,0.5,1.3,1.2,1.3
		c0,0,0.1,0,0.1,0h2.5c0.6,0,1,0.4,1,1s-0.4,1-1,1H905c-1.8,0.1-3.3-1.3-3.4-3.1c0,0,0-0.1,0-0.1c-0.1-1.8,1.2-3.3,3-3.4
		c0.1,0,0.2,0,0.3,0c0.5,0.1,1.1,0,1.6-0.3c0.3-0.3,0.4-0.8,0.3-1.2c0-1.8,1.5-3.3,3.4-3.3h0.2c1.8-0.1,3.3,1.3,3.4,3.1
		c0,0.1,0,0.2,0,0.3v27.8C913.8,315.4,913.3,315.8,912.8,315.8C912.8,315.8,912.8,315.8,912.8,315.8z"/>
	<g>
		<g transform="translate(892 274.01)">
			
				<image style="overflow:visible;enable-background:new    ;" width="31" height="52" id="image-53" xlink:href="52C304A.png"  transform="matrix(1 0 0 1 892 274.0099)">
			</image>
		</g>
	</g>
	<g>
		<g transform="translate(892 274.02)">
			
				<image style="overflow:visible;enable-background:new    ;" width="31" height="52" xlink:href="52C30B6.png"  transform="matrix(1 0 0 1 892 274.0199)">
			</image>
		</g>
	</g>
	<path class="st5" d="M912.8,315.5c-0.3,0-0.6-0.3-0.6-0.6V287c0.1-0.9-0.6-1.7-1.5-1.8c-0.1,0-0.2,0-0.3,0h-0.1
		c-1,0-1.8,0.7-1.8,1.7c0,0,0,0,0,0.1c0,0.9-0.3,1.8-1,2.4c-0.8,0.5-1.6,0.7-2.5,0.6c-0.5,0-0.9,0.2-1.2,0.5
		c-0.3,0.3-0.5,0.8-0.4,1.3c0,0.9,0.7,1.6,1.6,1.7c0.1,0,0.1,0,0.2,0h2.5c0.4,0,0.6,0.3,0.6,0.6v0c0,0.3-0.3,0.6-0.6,0.6h-2.5
		c-1.6,0.1-2.9-1.2-3-2.8c0,0,0,0,0-0.1c-0.1-1.6,1-2.9,2.6-3.1c0.1,0,0.2,0,0.4,0c0.6,0.1,1.2-0.1,1.8-0.4c0.4-0.4,0.5-0.9,0.5-1.5
		c0-1.6,1.4-2.9,3-2.9h0.1c1.6-0.1,2.9,1.2,3,2.8c0,0.1,0,0.1,0,0.2v27.8c0,0.4-0.2,0.7-0.6,0.7
		C912.9,315.5,912.8,315.5,912.8,315.5z"/>
	<path class="st5" d="M912.8,315.1c-0.1,0-0.3-0.1-0.3-0.3V287c0.1-1.1-0.7-2.1-1.8-2.1c-0.1,0-0.2,0-0.3,0h-0.1
		c-1.2,0-2.1,0.9-2.2,2c0,0,0,0,0,0c0.1,0.8-0.3,1.6-0.8,2.1c-0.7,0.4-1.5,0.6-2.3,0.5c-1.1,0-2.1,0.9-2.2,2c0,1.1,0.9,2.1,2,2.2
		c0.1,0,0.2,0,0.3,0h2.5c0.1,0,0.3,0.1,0.3,0.3s-0.1,0.3-0.3,0.3h-2.5c-1.5,0-2.7-1.2-2.7-2.6c0-0.7,0.2-1.3,0.7-1.8
		c0.5-0.5,1.2-0.8,1.9-0.8c0.7,0.1,1.4-0.1,2-0.4c0.5-0.5,0.7-1.1,0.7-1.8c0-1.4,1.2-2.6,2.6-2.6c0,0,0,0,0,0h0.1
		c1.4-0.1,2.6,1,2.6,2.4c0,0.1,0,0.2,0,0.3v27.8C913,314.9,912.9,315.1,912.8,315.1z"/>
	<path class="st5" d="M937.6,316.4c-0.6,0-1-0.4-1-1v-7.1c0-0.6,0.4-1,1-1h1.9c0.4,0,0.8-0.1,1.1-0.4c0.3-0.3,0.5-0.7,0.5-1.1
		c0-0.4-0.1-0.7-0.4-1l0,0c-0.3-0.3-0.6-0.4-1-0.4h-2c-0.6,0-1-0.4-1-1v-16.1c0.1-0.8-0.5-1.6-1.3-1.7c-0.1,0-0.1,0-0.2,0H935
		c-0.8,0-1.6,0.5-2,1.2L921.8,304c-0.4,0.6-0.6,1.4-0.4,2.1c0.2,0.7,0.9,1.3,1.6,1.2h8.4v-7.6l-2.5,3.7c-0.3,0.5-0.9,0.6-1.4,0.3
		c-0.5-0.3-0.6-0.9-0.3-1.4l0,0l4.4-6.5c0.2-0.4,0.7-0.5,1.1-0.4c0.4,0.1,0.7,0.5,0.7,1v12c0,0.6-0.4,1-1,1h-9.4
		c-1.7,0.1-3.2-1.1-3.6-2.8c-0.3-1.3,0-2.6,0.7-3.7l11.3-17.2c0.8-1.3,2.2-2.1,3.7-2.1h0.2c2,0.1,3.5,1.7,3.5,3.7c0,0,0,0,0,0.1
		v15.1h1c0.9,0,1.8,0.3,2.5,1l0.1,0.1c0.6,0.6,0.9,1.5,0.9,2.4c0,1.9-1.6,3.5-3.5,3.5c0,0,0,0-0.1,0h-0.9v6
		C938.6,316,938.2,316.4,937.6,316.4C937.6,316.4,937.6,316.4,937.6,316.4z"/>
	<g>
		<g transform="translate(910 274.01)">
			
				<image style="overflow:visible;enable-background:new    ;" width="43" height="52" id="image-54" xlink:href="52C30B9.png"  transform="matrix(1 0 0 1 910 274.0099)">
			</image>
		</g>
	</g>
	<g>
		<g transform="translate(910 274.02)">
			
				<image style="overflow:visible;enable-background:new    ;" width="43" height="52" xlink:href="52C30BA.png"  transform="matrix(1 0 0 1 910 274.0199)">
			</image>
		</g>
	</g>
	<path class="st5" d="M937.6,316.1c-0.3,0-0.6-0.3-0.6-0.6l0,0v-7c0-0.3,0.3-0.6,0.6-0.6h1.9c0.5,0,1-0.2,1.4-0.5
		c0.4-0.3,0.6-0.8,0.6-1.3c0-0.5-0.2-0.9-0.5-1.3v-0.1c-0.4-0.3-0.8-0.5-1.3-0.5h-2c-0.3,0-0.6-0.3-0.6-0.6v-16.1
		c0.1-1.1-0.7-2-1.7-2.1c0,0-0.1,0-0.1,0H935c-1,0-1.8,0.5-2.3,1.4l-11.3,17.2c-0.5,0.7-0.7,1.6-0.5,2.4c0.2,0.9,1.1,1.6,2,1.5h8.8
		v-9.3l-3.2,4.8c-0.2,0.3-0.6,0.4-0.9,0.2c0,0,0,0,0,0c-0.3-0.2-0.4-0.6-0.2-0.9l4.4-6.5c0.2-0.2,0.4-0.3,0.7-0.3
		c0.3,0.1,0.5,0.3,0.5,0.6v12c0,0.3-0.3,0.6-0.6,0.6h-9.4c-1.5,0.1-2.9-1-3.2-2.5c-0.2-1.2,0-2.4,0.7-3.4l11.3-17.2
		c0.7-1.2,2-1.9,3.4-2h0.1c1.8,0.1,3.1,1.5,3.1,3.3c0,0,0,0,0,0v15.4h1.4c0.8,0,1.6,0.3,2.2,0.9l0.1,0.1c0.5,0.6,0.8,1.3,0.8,2.1
		c0,1.7-1.4,3.2-3.2,3.1c0,0,0,0,0,0h-1.3v6.4C938.2,315.8,937.9,316.1,937.6,316.1z"/>
	<path class="st5" d="M937.6,315.7c-0.1,0-0.3-0.1-0.3-0.3v-7.1c0-0.1,0.1-0.3,0.3-0.3h1.9c1.3,0,2.3-1,2.3-2.3
		c0-0.6-0.2-1.1-0.6-1.5l-0.1-0.1c-0.4-0.4-1-0.7-1.6-0.6h-2c-0.1,0-0.3-0.1-0.3-0.3v-16.1c0.1-1.3-0.8-2.4-2.1-2.5c0,0-0.1,0-0.1,0
		H935c-1.1,0-2.1,0.6-2.6,1.5l-11.2,17.2c-0.6,0.8-0.8,1.8-0.6,2.7c0.2,1.1,1.2,1.9,2.4,1.8h9.2v-10.9l-3.9,5.8
		c-0.1,0.1-0.2,0.1-0.3,0.1c0,0,0,0,0,0c-0.1-0.1-0.2-0.2-0.1-0.3c0,0,0,0,0,0l4.4-6.5c0.1-0.1,0.2-0.1,0.3-0.1
		c0.1,0,0.2,0.1,0.2,0.3v12c0,0.1-0.1,0.3-0.3,0.3h-9.4c-1.4,0.1-2.6-0.9-2.8-2.2c-0.2-1.1,0-2.2,0.6-3.1l11.3-17.3
		c0.6-1.1,1.8-1.7,3-1.8h0.1c1.5,0,2.8,1.3,2.7,2.9c0,0,0,0.1,0,0.1v15.8h1.8c0.7,0,1.5,0.3,2,0.8l0.1,0.1c0.5,0.5,0.7,1.2,0.7,1.8
		c0,1.5-1.3,2.8-2.8,2.8c0,0,0,0,0,0h-1.7v6.8C937.9,315.6,937.7,315.7,937.6,315.7C937.6,315.7,937.6,315.7,937.6,315.7z"/>
</g>
</svg>
